    Stream #0.0: Video: mpeg4, yuv420p, 512x384 [PAR 1:1 DAR 4:3], 25 tbr, 25 tbn, 25 tbc
    Stream #0.0: Video: mpeg4, yuv420p, 640x480 [PAR 1:1 DAR 4:3], 23.98 tbr, 23.98 tbn, 30k tbc
    Stream #0.1: Video: wmv2, yuv420p, 480x352, 567 kb/s, 23.98 tbr, 1k tbn, 1k tbc
    Stream #0.0: Video: vp6f, yuv420p, 600x450, 29.97 tbr, 1k tbn, 1k tbc
    Stream #0.0: Video: vp6f, yuv420p, 320x240, 25 tbr, 1k tbn, 1k tbc
    Stream #0.0: Video: vp6f, yuv420p, 720x480, 29.97 tbr, 1k tbn, 1k tbc
    Stream #0.0: Video: mpeg4, yuv420p, 400x300 [PAR 1:1 DAR 4:3], 25 tbr, 25 tbn, 25 tbc
    Stream #0.0: Video: vp6f, yuv420p, 720x480, 29.97 tbr, 1k tbn, 1k tbc
    Stream #0.0: Video: vp6f, yuv420p, 720x480, 29.92 tbr, 1k tbn, 1k tbc
    Stream #0.0: Video: vp6f, yuv420p, 720x480, 29.97 tbr, 1k tbn, 1k tbc
    Stream #0.0: Video: vp6f, yuv420p, 720x480, 29.97 tbr, 1k tbn, 1k tbc
    Stream #0.0: Video: vp6f, yuv420p, 720x480, 29.97 tbr, 1k tbn, 1k tbc
    Stream #0.0: Video: vp6f, yuv420p, 512x384, 20 tbr, 1k tbn, 1k tbc
    Stream #0.0[0x1e0]: Video: mpeg1video, yuv420p, 352x240 [PAR 200:219 DAR 880:657], 1150 kb/s, 29.97 tbr, 90k tbn, 29.97 tbc
    Stream #0.0: Video: mpeg4, yuv420p, 640x480 [PAR 1:1 DAR 4:3], 25 tbr, 25 tbn, 25 tbc
    Stream #0.0: Video: mpeg4, yuv420p, 640x480 [PAR 1:1 DAR 4:3], 23.98 tbr, 23.98 tbn, 23.98 tbc
    Stream #0.0: Video: mpeg4, yuv420p, 640x480 [PAR 1:1 DAR 4:3], 25 tbr, 25 tbn, 25 tbc
    Stream #0.0: Video: vp6f, yuv420p, 352x288, 30 tbr, 1k tbn, 1k tbc
    Stream #0.0: Video: mpeg4, yuv420p, 704x400 [PAR 1:1 DAR 44:25], 23.98 tbr, 23.98 tbn, 23.98 tbc
    Stream #0.0: Video: vp6f, yuv420p, 640x480, 23.98 tbr, 1k tbn, 1k tbc
    Stream #0.0(jpn): Video: h264, yuv420p, 704x396, PAR 1:1 DAR 16:9, 23.98 tbr, 1k tbn, 47.95 tbc
    Stream #0.0: Video: mpeg4, yuv420p, 704x400 [PAR 1:1 DAR 44:25], 23.98 tbr, 23.98 tbn, 23.98 tbc
    Stream #0.0: Video: mpeg4, yuv420p, 704x400 [PAR 1:1 DAR 44:25], 23.98 tbr, 23.98 tbn, 23.98 tbc
    Stream #0.0(jpn): Video: h264, yuv420p, 704x396, PAR 1:1 DAR 16:9, 23.98 tbr, 1k tbn, 47.95 tbc
    Stream #0.0: Video: mpeg4, yuv420p, 704x400 [PAR 1:1 DAR 44:25], 23.98 tbr, 23.98 tbn, 23.98 tbc
    Stream #0.0: Video: vp6f, yuv420p, 640x480, 1k tbr, 1k tbn, 1k tbc
    Stream #0.0: Video: mpeg4, yuv420p, 704x396 [PAR 1:1 DAR 16:9], 23.98 tbr, 23.98 tbn, 23.98 tbc
    Stream #0.0: Video: mpeg4, yuv420p, 704x396 [PAR 1:1 DAR 16:9], 23.98 tbr, 23.98 tbn, 23.98 tbc
    Stream #0.0(jpn): Video: h264, yuv420p, 704x396, PAR 1:1 DAR 16:9, 23.98 tbr, 1k tbn, 47.95 tbc
    Stream #0.0: Video: mpeg4, yuv420p, 704x400 [PAR 1:1 DAR 44:25], 23.98 tbr, 23.98 tbn, 23.98 tbc
    Stream #0.0(jpn): Video: h264, yuv420p, 704x396, PAR 1:1 DAR 16:9, 23.98 tbr, 1k tbn, 47.95 tbc
    Stream #0.0: Video: vp6f, yuv420p, 480x360, 23.98 tbr, 1k tbn, 1k tbc
    Stream #0.0: Video: mpeg4, yuv420p, 704x396 [PAR 1:1 DAR 16:9], 23.98 tbr, 23.98 tbn, 23.98 tbc
    Stream #0.0: Video: mpeg4, yuv420p, 576x320 [PAR 1:1 DAR 9:5], 25 tbr, 25 tbn, 25 tbc
    Stream #0.0: Video: mpeg4, yuv420p, 512x384 [PAR 1:1 DAR 4:3], 25 tbr, 25 tbn, 25 tbc
    Stream #0.0: Video: mpeg4, yuv420p, 512x384 [PAR 1:1 DAR 4:3], 25 tbr, 25 tbn, 25 tbc
    Stream #0.0: Video: vp6f, yuv420p, 720x576, 25 tbr, 1k tbn, 1k tbc
    Stream #0.0: Video: vp6f, yuv420p, 720x576, 25 tbr, 1k tbn, 1k tbc
    Stream #0.0: Video: vp6f, yuv420p, 720x480, 29.97 tbr, 1k tbn, 1k tbc
    Stream #0.0: Video: vp6f, yuv420p, 720x576, 25 tbr, 1k tbn, 1k tbc
    Stream #0.0: Video: vp6f, yuv420p, 720x576, 25 tbr, 1k tbn, 1k tbc
    Stream #0.0: Video: vp6f, yuv420p, 720x576, 25 tbr, 1k tbn, 1k tbc
    Stream #0.0: Video: vp6f, yuv420p, 720x576, 25 tbr, 1k tbn, 1k tbc
    Stream #0.0: Video: msmpeg4, yuv420p, 320x240, 29.97 tbr, 29.97 tbn, 29.97 tbc
    Stream #0.0(eng): Video: mpeg4, yuv420p, 400x300 [PAR 1:1 DAR 4:3], 25 tbr, 25 tbn, 1k tbc
    Stream #0.0: Video: mpeg4, yuv420p, 400x300 [PAR 1:1 DAR 4:3], 25 tbr, 25 tbn, 25 tbc
    Stream #0.0(eng): Video: mpeg4, yuv420p, 480x360 [PAR 1:1 DAR 4:3], 25 tbr, 25 tbn, 1k tbc
    Stream #0.0(eng): Video: mpeg4, yuv420p, 160x120 [PAR 1:1 DAR 4:3], 12.50 tbr, 25 tbn, 1k tbc
    Stream #0.1: Video: msmpeg4, 316x236, 51 kb/s, 1k tbr, 1k tbn, 1k tbc
    Stream #0.2: Video: msmpeg4, 316x236, 85 kb/s, 1k tbr, 1k tbn, 1k tbc
    Stream #0.3: Video: msmpeg4, yuv420p, 316x236, 162 kb/s, 15 tbr, 1k tbn, 1k tbc
    Stream #0.0: Video: mpeg4, yuv420p, 400x300 [PAR 1:1 DAR 4:3], 25 tbr, 25 tbn, 30k tbc
    Stream #0.0(eng): Video: mpeg4, yuv420p, 400x300 [PAR 1:1 DAR 4:3], 25 tbr, 25 tbn, 1k tbc
    Stream #0.0: Video: mpeg4, yuv420p, 400x300 [PAR 1:1 DAR 4:3], 25 tbr, 25 tbn, 25 tbc
    Stream #0.0: Video: wmv3, yuv420p, 320x240, 450 kb/s, 30 tbr, 1k tbn, 1k tbc
    Stream #0.0[0x1e0]: Video: mpeg1video, yuv420p, 360x288 [PAR 1:1 DAR 5:4], 1150 kb/s, 25 tbr, 90k tbn, 25 tbc
    Stream #0.0: Video: mpeg4, yuv420p, 400x300 [PAR 1:1 DAR 4:3], 25 tbr, 25 tbn, 25 tbc
    Stream #0.0(eng): Video: mpeg4, yuv420p, 400x300 [PAR 1:1 DAR 4:3], 25 tbr, 25 tbn, 1k tbc
    Stream #0.0(eng): Video: mpeg4, yuv420p, 400x300 [PAR 1:1 DAR 4:3], 25 tbr, 25 tbn, 1k tbc
    Stream #0.1: Video: wmv1, 384x288, 195 kb/s, 1k tbr, 1k tbn, 1k tbc
    Stream #0.2: Video: wmv1, yuv420p, 384x288, 320 kb/s, 15 tbr, 1k tbn, 1k tbc
    Stream #0.1: Video: wmv1, 384x288, 195 kb/s, 1k tbr, 1k tbn, 1k tbc
    Stream #0.2: Video: wmv1, yuv420p, 384x288, 320 kb/s, 15 tbr, 1k tbn, 1k tbc
    Stream #0.0: Video: mpeg4, yuv420p, 400x304 [PAR 1:1 DAR 25:19], 25 tbr, 25 tbn, 30k tbc
    Stream #0.0: Video: mpeg4, yuv420p, 400x300 [PAR 1:1 DAR 4:3], 25 tbr, 25 tbn, 25 tbc
    Stream #0.0: Video: mpeg4, yuv420p, 480x360 [PAR 1:1 DAR 4:3], 25 tbr, 25 tbn, 25 tbc
    Stream #0.0[0x1e0]: Video: mpeg1video, yuv420p, 352x240 [PAR 200:219 DAR 880:657], 1150 kb/s, 29.97 tbr, 90k tbn, 29.97 tbc
    Stream #0.0: Video: mpeg4, yuv420p, 512x384 [PAR 1:1 DAR 4:3], 29.97 tbr, 29.97 tbn, 29.98 tbc
    Stream #0.0: Video: mpeg4, yuv420p, 512x384 [PAR 1:1 DAR 4:3], 29.97 tbr, 29.97 tbn, 29.98 tbc
    Stream #0.0: Video: vp6f, yuv420p, 352x240, 29.97 tbr, 1k tbn, 1k tbc
    Stream #0.0: Video: vp6f, yuv420p, 640x480, 30 tbr, 1k tbn, 1k tbc
    Stream #0.0: Video: vp6f, yuv420p, 640x480, 30 tbr, 1k tbn, 1k tbc
    Stream #0.0: Video: vp6f, yuv420p, 576x432, 25 tbr, 1k tbn, 1k tbc
    Stream #0.0: Video: vp6f, yuv420p, 640x480, 30 tbr, 1k tbn, 1k tbc
    Stream #0.0: Video: vp6f, yuv420p, 720x576, 25 tbr, 1k tbn, 1k tbc
    Stream #0.0: Video: vp6f, yuv420p, 384x288, 30 tbr, 1k tbn, 1k tbc
    Stream #0.0: Video: vp6f, yuv420p, 640x480, 30 tbr, 1k tbn, 1k tbc
    Stream #0.0: Video: vp6f, yuv420p, 640x480, 30 tbr, 1k tbn, 1k tbc
    Stream #0.1: Video: wmv3, yuv420p, 480x320, 500 kb/s, 14.99 tbr, 1k tbn, 1k tbc
    Stream #0.1: Video: wmv3, yuv420p, 320x240, 256 kb/s, 23.98 tbr, 1k tbn, 1k tbc
    Stream #0.1: Video: wmv2, yuv420p, 352x288, 636 kb/s, 30 tbr, 1k tbn, 1k tbc
    Stream #0.0[0x1e0]: Video: mpeg1video, yuv420p, 320x240 [PAR 1:1 DAR 4:3], 500 kb/s, 30 tbr, 90k tbn, 30 tbc
    Stream #0.0: Video: IV50 / 0x30355649, 320x240, 14.89 tbr, 14.89 tbn, 14.89 tbc
    Stream #0.0: Video: vp6f, yuv420p, 640x480, 30 tbr, 1k tbn, 1k tbc
    Stream #0.0[0x1e0]: Video: mpeg1video, yuv420p, 320x240 [PAR 1:1 DAR 4:3], 792 kb/s, 24 tbr, 90k tbn, 24 tbc
    Stream #0.0: Video: vp6f, yuv420p, 640x480, 30 tbr, 1k tbn, 1k tbc
    Stream #0.0: Video: vp6f, yuv420p, 640x480, 30 tbr, 1k tbn, 1k tbc
    Stream #0.0: Video: msmpeg4, yuv420p, 352x240, 15 tbr, 15 tbn, 15 tbc
    Stream #0.0: Video: mpeg4, yuv420p, 448x336 [PAR 1:1 DAR 4:3], 29.97 tbr, 29.97 tbn, 29.98 tbc
    Stream #0.0: Video: vp6f, yuv420p, 640x480, 30 tbr, 1k tbn, 1k tbc
    Stream #0.0: Video: vp6f, yuv420p, 640x480, 29.97 tbr, 1k tbn, 1k tbc
    Stream #0.0: Video: wmv3, yuv420p, 320x224, 30 tbr, 30 tbn, 30 tbc
    Stream #0.1: Video: wmv3, yuv420p, 640x480, 992 kb/s, 29.92 tbr, 1k tbn, 1k tbc
    Stream #0.1: Video: wmv2, yuv420p, 352x288, 636 kb/s, 30 tbr, 1k tbn, 1k tbc
    Stream #0.0: Video: vp6f, yuv420p, 640x480, 30 tbr, 1k tbn, 1k tbc
    Stream #0.0: Video: vp6f, yuv420p, 720x480, 29.97 tbr, 1k tbn, 1k tbc
    Stream #0.0: Video: vp6f, yuv420p, 720x480, 29.97 tbr, 1k tbn, 1k tbc
    Stream #0.1: Video: wmv2, yuv420p, 480x352, 559 kb/s, 23.98 tbr, 1k tbn, 1k tbc
    Stream #0.0: Video: vp6f, yuv420p, 640x480, 30 tbr, 1k tbn, 1k tbc
    Stream #0.0: Video: vp6f, yuv420p, 640x480, 30 tbr, 1k tbn, 1k tbc
    Stream #0.0: Video: vp6f, yuv420p, 352x288, 15 tbr, 1k tbn, 1k tbc
    Stream #0.0: Video: mpeg4, yuv420p, 720x480 [PAR 1:1 DAR 3:2], 23.98 tbr, 23.98 tbn, 30k tbc
    Stream #0.1: Video: wmv2, yuv420p, 320x240, 202 kb/s, 30 tbr, 1k tbn, 1k tbc
    Stream #0.0: Video: vp6f, yuv420p, 640x426, 29.92 tbr, 1k tbn, 1k tbc
    Stream #0.0: Video: vp6f, yuv420p, 720x576, 25 tbr, 1k tbn, 1k tbc
    Stream #0.1: Video: wmv2, yuv420p, 320x240, 302 kb/s, 25 tbr, 1k tbn, 1k tbc
    Stream #0.0: Video: flv, yuv420p, 320x240, 385 kb/s, 24 tbr, 1k tbn, 1k tbc
    Stream #0.1: Video: wmv1, yuv420p, 320x240, 189 kb/s, 30 tbr, 1k tbn, 1k tbc
    Stream #0.0: Video: vp6f, yuv420p, 720x576, 25 tbr, 1k tbn, 1k tbc
    Stream #0.1: Video: wmv2, yuv420p, 320x240, 92 kb/s, 30 tbr, 1k tbn, 1k tbc
    Stream #0.1: Video: wmv1, yuv420p, 640x480, 564 kb/s, 23.98 tbr, 1k tbn, 1k tbc
    Stream #0.0: Video: vp6f, yuv420p, 352x288, 30 tbr, 1k tbn, 1k tbc
    Stream #0.1: Video: wmv1, yuv420p, 320x240, 314 kb/s, 25 tbr, 1k tbn, 1k tbc
    Stream #0.0: Video: vp6f, yuv420p, 640x480, 25 tbr, 1k tbn, 1k tbc
    Stream #0.1: Video: wmv3, yuv420p, 320x240, 296 kb/s, 25 tbr, 1k tbn, 1k tbc
    Stream #0.0: Video: vp6f, yuv420p, 640x480, 29.97 tbr, 1k tbn, 1k tbc
    Stream #0.0: Video: vp6f, yuv420p, 640x360, 29.92 tbr, 1k tbn, 1k tbc
    Stream #0.0: Video: vp6f, yuv420p, 320x240, 30 tbr, 1k tbn, 1k tbc
    Stream #0.0: Video: vp6f, yuv420p, 640x480, 30 tbr, 1k tbn, 1k tbc
    Stream #0.0[0x1e0]: Video: mpeg1video, yuv420p, 352x288 [PAR 178:163 DAR 1958:1467], 1150 kb/s, 25 tbr, 90k tbn, 25 tbc
    Stream #0.0: Video: vp6f, yuv420p, 640x426, 29.92 tbr, 1k tbn, 1k tbc
    Stream #0.0[0x1e0]: Video: mpeg1video, yuv420p, 352x288 [PAR 178:163 DAR 1958:1467], 512 kb/s, 25 tbr, 90k tbn, 25 tbc
    Stream #0.1: Video: wmv3, yuv420p, 640x480, 768 kb/s, 25 tbr, 1k tbn, 1k tbc
    Stream #0.0: Video: vp6f, yuv420p, 640x480, 23.98 tbr, 1k tbn, 1k tbc
    Stream #0.0: Video: vp6f, yuv420p, 512x384, 30 tbr, 1k tbn, 1k tbc
    Stream #0.0: Video: vp6f, yuv420p, 640x480, 30 tbr, 1k tbn, 1k tbc
    Stream #0.0: Video: vp6f, yuv420p, 720x576, 23.98 tbr, 1k tbn, 1k tbc
    Stream #0.0: Video: mpeg4, yuv420p, 576x320 [PAR 1:1 DAR 9:5], 29.97 tbr, 29.97 tbn, 29.98 tbc
    Stream #0.0: Video: mpeg4, yuv420p, 576x320 [PAR 1:1 DAR 9:5], 29.97 tbr, 29.97 tbn, 29.98 tbc
    Stream #0.1: Video: wmv3, yuv420p, 768x432, 2300 kb/s, 29.97 tbr, 1k tbn, 1k tbc
    Stream #0.0: Video: vp6f, yuv420p, 720x480, 29.97 tbr, 1k tbn, 1k tbc
    Stream #0.0: Video: vp6f, yuv420p, 352x240, 29.97 tbr, 1k tbn, 1k tbc
    Stream #0.1: Video: wmv3, yuv420p, 640x480, 1598 kb/s, 24 tbr, 1k tbn, 1k tbc
    Stream #0.0: Video: vp6f, yuv420p, 720x576, 25 tbr, 1k tbn, 1k tbc
    Stream #0.0[0x1e0]: Video: mpeg1video, yuv420p, 640x480 [PAR 1:1 DAR 4:3], 1800 kb/s, 29.97 tbr, 90k tbn, 29.97 tbc
    Stream #0.1: Video: wmv2, yuv420p, 352x288, 636 kb/s, 30 tbr, 1k tbn, 1k tbc
    Stream #0.0: Video: vp6f, yuv420p, 720x480, 29.97 tbr, 1k tbn, 1k tbc
    Stream #0.0: Video: vp6f, yuv420p, 1280x720, 14.99 tbr, 1k tbn, 1k tbc
    Stream #0.0: Video: vp6f, yuv420p, 768x576, 30 tbr, 1k tbn, 1k tbc
    Stream #0.1: Video: wmv3, yuv420p, 720x404, 1400 kb/s, 29.97 tbr, 1k tbn, 1k tbc
    Stream #0.1: Video: wmv3, yuv420p, 360x240, 256 kb/s, 29.97 tbr, 1k tbn, 1k tbc
    Stream #0.0: Video: mpeg4, yuv420p, 720x540, 29.97 tbr, 29.97 tbn, 29.97 tbc
    Stream #0.0: Video: mpeg4, yuv420p, 576x432 [PAR 1:1 DAR 4:3], 29.97 tbr, 29.97 tbn, 29.98 tbc
    Stream #0.1: Video: wmv2, yuv420p, 480x352, 785 kb/s, 29.97 tbr, 1k tbn, 1k tbc
    Stream #0.0: Video: mpeg4, yuv420p, 576x432 [PAR 1:1 DAR 4:3], 29.97 tbr, 29.97 tbn, 29.98 tbc
    Stream #0.0: Video: mpeg4, yuv420p, 512x384 [PAR 1:1 DAR 4:3], 29.97 tbr, 29.97 tbn, 29.98 tbc
    Stream #0.1: Video: wmv3, yuv420p, 640x360, 1330 kb/s, 25 tbr, 1k tbn, 1k tbc
    Stream #0.0: Video: mpeg4, yuv420p, 576x432 [PAR 1:1 DAR 4:3], 29.97 tbr, 29.97 tbn, 29.97 tbc
    Stream #0.0[0x1e0]: Video: mpeg1video, yuv420p, 352x240 [PAR 200:219 DAR 880:657], 700 kb/s, 29.97 tbr, 90k tbn, 29.97 tbc
    Stream #0.1: Video: wmv2, yuv420p, 720x480, 3170 kb/s, 23.98 tbr, 1k tbn, 1k tbc
    Stream #0.0: Video: vp6f, yuv420p, 352x240, 29.97 tbr, 1k tbn, 1k tbc
    Stream #0.0: Video: vp6f, yuv420p, 640x480, 30 tbr, 1k tbn, 1k tbc
    Stream #0.0: Video: vp6f, yuv420p, 640x480, 29.97 tbr, 1k tbn, 1k tbc
    Stream #0.1: Video: msmpeg4, yuv420p, 320x240, 275 kb/s, 29.97 tbr, 1k tbn, 1k tbc
    Stream #0.0: Video: vp6f, yuv420p, 480x360, 30 tbr, 1k tbn, 1k tbc
    Stream #0.0: Video: vp6f, yuv420p, 720x480, 29.97 tbr, 1k tbn, 1k tbc
    Stream #0.0: Video: mpeg4, yuv420p, 384x288 [PAR 1:1 DAR 4:3], 25 tbr, 25 tbn, 30k tbc
    Stream #0.0: Video: vp6f, yuv420p, 720x480, 29.97 tbr, 1k tbn, 1k tbc
    Stream #0.0[0x1e0]: Video: mpeg1video, yuv420p, 320x240 [PAR 178:163 DAR 712:489], 500 kb/s, 25 tbr, 90k tbn, 25 tbc
    Stream #0.1: Video: wmv2, yuv420p, 320x240, 675 kb/s, 29.97 tbr, 1k tbn, 1k tbc
    Stream #0.0: Video: vp6f, yuv420p, 480x360, 29.92 tbr, 1k tbn, 1k tbc
    Stream #0.1: Video: wmv2, yuv420p, 320x240, 29.97 tbr, 1k tbn, 1k tbc
    Stream #0.1: Video: wmv3, yuv420p, 720x480, 3000 kb/s, 29.97 tbr, 1k tbn, 1k tbc
    Stream #0.0[0x1e0]: Video: mpeg1video, yuv420p, 480x360 [PAR 1:1 DAR 4:3], 1150 kb/s, 29.97 tbr, 90k tbn, 29.97 tbc
    Stream #0.0: Video: vp6f, yuv420p, 320x240, 30 tbr, 1k tbn, 1k tbc
    Stream #0.1: Video: wmv2, yuv420p, 320x240, 675 kb/s, 29.97 tbr, 1k tbn, 1k tbc
    Stream #0.1: Video: wmv2, yuv420p, 320x240, 675 kb/s, 29.97 tbr, 1k tbn, 1k tbc
    Stream #0.0: Video: vp6f, yuv420p, 640x480, 30 tbr, 1k tbn, 1k tbc
    Stream #0.1: Video: wmv2, yuv420p, 352x288, 636 kb/s, 30 tbr, 1k tbn, 1k tbc
    Stream #0.1: Video: msmpeg4, yuv420p, 320x240, 452 kb/s, 30 tbr, 1k tbn, 1k tbc
    Stream #0.0[0x1e0]: Video: mpeg1video, yuv420p, 320x240 [PAR 200:219 DAR 800:657], 512 kb/s, 29.97 tbr, 90k tbn, 29.97 tbc
    Stream #0.0: Video: mpeg4, yuv420p, 320x240 [PAR 1:1 DAR 4:3], 29.97 tbr, 29.97 tbn, 30k tbc
    Stream #0.0: Video: mpeg4, yuv420p, 640x480 [PAR 1:1 DAR 4:3], 25 tbr, 25 tbn, 25 tbc
    Stream #0.1: Video: wmv3, yuv420p, 352x240, 360 kb/s, 15 tbr, 1k tbn, 1k tbc
    Stream #0.0: Video: mpeg4, yuv420p, 320x240 [PAR 1:1 DAR 4:3], 25 tbr, 25 tbn, 25 tbc
    Stream #0.0: Video: mpeg4, yuv420p, 320x240 [PAR 1:1 DAR 4:3], 29.97 tbr, 29.97 tbn, 30k tbc
    Stream #0.0: Video: vp6f, yuv420p, 720x480, 29.97 tbr, 1k tbn, 1k tbc
    Stream #0.0: Video: mpeg4, yuv420p, 320x240 [PAR 1:1 DAR 4:3], 29.97 tbr, 29.97 tbn, 30k tbc
    Stream #0.0: Video: mpeg4, yuv420p, 320x240 [PAR 1:1 DAR 4:3], 29.97 tbr, 29.97 tbn, 30k tbc
    Stream #0.1: Video: msmpeg4, yuv420p, 320x240, 29.92 tbr, 1k tbn, 1k tbc
    Stream #0.0: Video: vp6f, yuv420p, 320x240, 30 tbr, 1k tbn, 1k tbc
    Stream #0.0: Video: vp6f, yuv420p, 720x576, 29.97 tbr, 1k tbn, 1k tbc
    Stream #0.0: Video: mpeg4, yuv420p, 320x240 [PAR 1:1 DAR 4:3], 29.97 tbr, 29.97 tbn, 30k tbc
    Stream #0.0: Video: vp6f, yuv420p, 640x426, 29.92 tbr, 1k tbn, 1k tbc
    Stream #0.0: Video: mpeg4, yuv420p, 320x240 [PAR 1:1 DAR 4:3], 25 tbr, 25 tbn, 25 tbc
    Stream #0.1: Video: wmv2, yuv420p, 320x240, 675 kb/s, 29.97 tbr, 1k tbn, 1k tbc
    Stream #0.0: Video: mpeg4, yuv420p, 624x352 [PAR 1:1 DAR 39:22], 29.97 tbr, 29.97 tbn, 29.98 tbc
    Stream #0.0: Video: mpeg4, yuv420p, 624x352 [PAR 1:1 DAR 39:22], 29.97 tbr, 29.97 tbn, 29.98 tbc
    Stream #0.0: Video: vp6f, yuv420p, 720x480, 29.97 tbr, 1k tbn, 1k tbc
    Stream #0.0: Video: mpeg4, yuv420p, 640x368 [PAR 1:1 DAR 40:23], 23.98 tbr, 23.98 tbn, 23.98 tbc
    Stream #0.1: Video: wmv2, yuv420p, 352x288, 636 kb/s, 30 tbr, 1k tbn, 1k tbc
    Stream #0.0: Video: mpeg4, yuv420p, 320x256 [PAR 1:1 DAR 5:4], 25 tbr, 25 tbn, 30k tbc
    Stream #0.1: Video: wmv2, yuv420p, 352x288, 636 kb/s, 30 tbr, 1k tbn, 1k tbc
    Stream #0.0: Video: vp6f, yuv420p, 352x240, 29.97 tbr, 1k tbn, 1k tbc
    Stream #0.0: Video: vp6f, yuv420p, 720x576, 25 tbr, 1k tbn, 1k tbc
    Stream #0.0: Video: vp6f, yuv420p, 720x480, 29.97 tbr, 1k tbn, 1k tbc
    Stream #0.0: Video: mpeg4, yuv420p, 576x432 [PAR 1:1 DAR 4:3], 25 tbr, 25 tbn, 25 tbc
    Stream #0.0: Video: msrle, pal8, 640x480, 29.97 tbr, 29.97 tbn, 29.97 tbc
    Stream #0.0: Video: mpeg4, yuv420p, 576x432 [PAR 1:1 DAR 4:3], 25 tbr, 25 tbn, 25 tbc
    Stream #0.0: Video: mpeg4, yuv420p, 576x432 [PAR 1:1 DAR 4:3], 25 tbr, 25 tbn, 25 tbc
    Stream #0.0: Video: mpeg4, yuv420p, 512x384 [PAR 4:3 DAR 16:9], 25 tbr, 25 tbn, 25 tbc
    Stream #0.0: Video: mpeg4, yuv420p, 512x384 [PAR 1:1 DAR 4:3], 25 tbr, 25 tbn, 25 tbc
    Stream #0.0: Video: mpeg4, yuv420p, 512x416 [PAR 254:235 DAR 4064:3055], 25 tbr, 25 tbn, 25 tbc
    Stream #0.0: Video: mpeg4, yuv420p, 512x416 [PAR 254:235 DAR 4064:3055], 25 tbr, 25 tbn, 25 tbc
    Stream #0.0: Video: mpeg4, yuv420p, 512x416 [PAR 254:235 DAR 4064:3055], 25 tbr, 25 tbn, 25 tbc
    Stream #0.0: Video: mpeg4, yuv420p, 512x416 [PAR 254:235 DAR 4064:3055], 25 tbr, 25 tbn, 25 tbc
    Stream #0.0: Video: mpeg4, yuv420p, 512x416 [PAR 254:235 DAR 4064:3055], 25 tbr, 25 tbn, 25 tbc
    Stream #0.0: Video: mpeg4, yuv420p, 576x320 [PAR 1:1 DAR 9:5], 25 tbr, 25 tbn, 25 tbc
    Stream #0.0: Video: mpeg4, yuv420p, 576x320 [PAR 1:1 DAR 9:5], 25 tbr, 25 tbn, 25 tbc
    Stream #0.0: Video: mpeg4, yuv420p, 576x432 [PAR 1:1 DAR 4:3], 25 tbr, 25 tbn, 25 tbc
    Stream #0.0: Video: mpeg4, yuv420p, 576x320 [PAR 1:1 DAR 9:5], 25 tbr, 25 tbn, 25 tbc
    Stream #0.0: Video: mpeg4, yuv420p, 576x432 [PAR 1:1 DAR 4:3], 25 tbr, 25 tbn, 25 tbc
    Stream #0.0: Video: mpeg4, yuv420p, 576x320 [PAR 1:1 DAR 9:5], 25 tbr, 25 tbn, 25 tbc
    Stream #0.0: Video: mpeg4, yuv420p, 576x320 [PAR 1:1 DAR 9:5], 25 tbr, 25 tbn, 25 tbc
    Stream #0.0: Video: mpeg4, yuv420p, 576x320 [PAR 1:1 DAR 9:5], 25 tbr, 25 tbn, 25 tbc
    Stream #0.0: Video: mpeg4, yuv420p, 576x432 [PAR 1:1 DAR 4:3], 25 tbr, 25 tbn, 25 tbc
    Stream #0.0: Video: mpeg4, yuv420p, 544x400 [PAR 1:1 DAR 34:25], 23.98 tbr, 23.98 tbn, 23.98 tbc
    Stream #0.0: Video: mpeg4, yuv420p, 576x432 [PAR 1:1 DAR 4:3], 25 tbr, 25 tbn, 25 tbc
    Stream #0.0: Video: vp6f, yuv420p, 720x480, 29.97 tbr, 1k tbn, 1k tbc
    Stream #0.0: Video: vp6f, yuv420p, 720x480, 29.97 tbr, 1k tbn, 1k tbc
    Stream #0.0: Video: vp6f, yuv420p, 720x480, 29.97 tbr, 1k tbn, 1k tbc
    Stream #0.0: Video: vp6f, yuv420p, 720x480, 29.97 tbr, 1k tbn, 1k tbc
    Stream #0.0: Video: vp6f, yuv420p, 720x480, 29.97 tbr, 1k tbn, 1k tbc
    Stream #0.0: Video: vp6f, yuv420p, 640x480, 30 tbr, 1k tbn, 1k tbc
    Stream #0.0: Video: msmpeg4, yuv420p, 320x240, 20 tbr, 20 tbn, 20 tbc
    Stream #0.0: Video: vp6f, yuv420p, 720x576, 25 tbr, 1k tbn, 1k tbc
    Stream #0.1: Video: wmv3, yuv420p, 640x480, 920 kb/s, 25 tbr, 1k tbn, 1k tbc
    Stream #0.0: Video: vp6f, yuv420p, 720x480, 29.97 tbr, 1k tbn, 1k tbc
    Stream #0.1: Video: wmv3, yuv420p, 640x480, 600 kb/s, 25 tbr, 1k tbn, 1k tbc
    Stream #0.0: Video: vp6f, yuv420p, 720x480, 29.97 tbr, 1k tbn, 1k tbc
    Stream #0.0: Video: vp6f, yuv420p, 960x540, 30 tbr, 1k tbn, 1k tbc
    Stream #0.0: Video: vp6f, yuv420p, 720x480, 29.97 tbr, 1k tbn, 1k tbc
    Stream #0.1: Video: wmv2, yuv420p, 352x288, 636 kb/s, 30 tbr, 1k tbn, 1k tbc
    Stream #0.0: Video: mpeg4, yuv420p, 512x384 [PAR 1:1 DAR 4:3], 29.97 tbr, 29.97 tbn, 29.98 tbc
    Stream #0.0: Video: vp6f, yuv420p, 640x480, 23.98 tbr, 1k tbn, 1k tbc
    Stream #0.0: Video: vp6f, yuv420p, 720x480, 29.97 tbr, 1k tbn, 1k tbc
    Stream #0.0: Video: vp6f, yuv420p, 720x480, 29.97 tbr, 1k tbn, 1k tbc
    Stream #0.0: Video: vp6f, yuv420p, 720x480, 29.97 tbr, 1k tbn, 1k tbc
    Stream #0.0: Video: vp6f, yuv420p, 640x480, 23.98 tbr, 1k tbn, 1k tbc
    Stream #0.0: Video: vp6f, yuv420p, 720x540, 30 tbr, 1k tbn, 1k tbc
    Stream #0.0: Video: vp6f, yuv420p, 720x576, 25 tbr, 1k tbn, 1k tbc
    Stream #0.0: Video: vp6f, yuv420p, 720x480, 29.97 tbr, 1k tbn, 1k tbc
    Stream #0.0: Video: vp6f, yuv420p, 720x480, 29.97 tbr, 1k tbn, 1k tbc
    Stream #0.0: Video: vp6f, yuv420p, 720x480, 29.97 tbr, 1k tbn, 1k tbc
    Stream #0.0: Video: vp6f, yuv420p, 720x480, 29.97 tbr, 1k tbn, 1k tbc
    Stream #0.0: Video: vp6f, yuv420p, 720x480, 29.97 tbr, 1k tbn, 1k tbc
    Stream #0.0: Video: vp6f, yuv420p, 720x480, 29.97 tbr, 1k tbn, 1k tbc
    Stream #0.0: Video: mpeg4, yuv420p, 320x240 [PAR 1:1 DAR 4:3], 25 tbr, 25 tbn, 30k tbc
    Stream #0.0: Video: vp6f, yuv420p, 480x360, 30 tbr, 1k tbn, 1k tbc
    Stream #0.0: Video: vp6f, yuv420p, 720x480, 29.97 tbr, 1k tbn, 1k tbc
    Stream #0.0: Video: vp6f, yuv420p, 640x480, 25 tbr, 1k tbn, 1k tbc
    Stream #0.0: Video: vp6f, yuv420p, 720x576, 25 tbr, 1k tbn, 1k tbc
    Stream #0.0: Video: vp6f, yuv420p, 720x576, 25 tbr, 1k tbn, 1k tbc
    Stream #0.0: Video: vp6f, yuv420p, 720x480, 29.97 tbr, 1k tbn, 1k tbc
    Stream #0.0: Video: vp6f, yuv420p, 640x480, 29.97 tbr, 1k tbn, 1k tbc
    Stream #0.0: Video: vp6f, yuv420p, 720x576, 25 tbr, 1k tbn, 1k tbc
    Stream #0.0: Video: vp6f, yuv420p, 480x360, 30 tbr, 1k tbn, 1k tbc
    Stream #0.0: Video: vp6f, yuv420p, 720x480, 29.97 tbr, 1k tbn, 1k tbc
    Stream #0.0: Video: vp6f, yuv420p, 720x480, 29.97 tbr, 1k tbn, 1k tbc
    Stream #0.1: Video: wmv3, yuv420p, 640x480, 565 kb/s, 25 tbr, 1k tbn, 1k tbc
    Stream #0.0: Video: vp6f, yuv420p, 720x480, 29.97 tbr, 1k tbn, 1k tbc
    Stream #0.0: Video: vp6f, yuv420p, 720x480, 29.97 tbr, 1k tbn, 1k tbc
    Stream #0.0: Video: vp6f, yuv420p, 720x576, 25 tbr, 1k tbn, 1k tbc
    Stream #0.0: Video: vp6f, yuv420p, 720x576, 25 tbr, 1k tbn, 1k tbc
    Stream #0.0: Video: vp6f, yuv420p, 720x480, 29.97 tbr, 1k tbn, 1k tbc
    Stream #0.0: Video: vp6f, yuv420p, 352x288, 25 tbr, 1k tbn, 1k tbc
    Stream #0.0: Video: mpeg4, yuv420p, 320x240 [PAR 1:1 DAR 4:3], 30 tbr, 30 tbn, 30 tbc
    Stream #0.0: Video: vp6f, yuv420p, 720x480, 29.97 tbr, 1k tbn, 1k tbc
    Stream #0.0: Video: vp6f, yuv420p, 720x480, 29.97 tbr, 1k tbn, 1k tbc
    Stream #0.0: Video: vp6f, yuv420p, 720x480, 29.97 tbr, 1k tbn, 1k tbc
    Stream #0.0: Video: vp6f, yuv420p, 640x480, 23.98 tbr, 1k tbn, 1k tbc
    Stream #0.0: Video: vp6f, yuv420p, 720x480, 29.97 tbr, 1k tbn, 1k tbc
    Stream #0.0: Video: vp6f, yuv420p, 480x360, 30 tbr, 1k tbn, 1k tbc
    Stream #0.0: Video: vp6f, yuv420p, 720x576, 25 tbr, 1k tbn, 1k tbc
    Stream #0.0: Video: vp6f, yuv420p, 720x576, 25 tbr, 1k tbn, 1k tbc
    Stream #0.0: Video: vp6f, yuv420p, 720x480, 29.97 tbr, 1k tbn, 1k tbc
    Stream #0.0: Video: vp6f, yuv420p, 640x480, 30 tbr, 1k tbn, 1k tbc
    Stream #0.0: Video: vp6f, yuv420p, 720x480, 29.97 tbr, 1k tbn, 1k tbc
    Stream #0.0: Video: vp6f, yuv420p, 720x576, 25 tbr, 1k tbn, 1k tbc
    Stream #0.0: Video: vp6f, yuv420p, 1280x720, 25 tbr, 1k tbn, 1k tbc
    Stream #0.0: Video: vp6f, yuv420p, 640x480, 30 tbr, 1k tbn, 1k tbc
    Stream #0.0: Video: vp6f, yuv420p, 720x480, 29.97 tbr, 1k tbn, 1k tbc
    Stream #0.0: Video: vp6f, yuv420p, 720x480, 29.97 tbr, 1k tbn, 1k tbc
    Stream #0.0: Video: vp6f, yuv420p, 576x432, 25 tbr, 1k tbn, 1k tbc
    Stream #0.0: Video: vp6f, yuv420p, 720x576, 25 tbr, 1k tbn, 1k tbc
    Stream #0.0: Video: vp6f, yuv420p, 640x480, 23.98 tbr, 1k tbn, 1k tbc
    Stream #0.0: Video: mpeg4, yuv420p, 544x416 [PAR 1:1 DAR 17:13], 29.97 tbr, 29.97 tbn, 29.98 tbc
    Stream #0.0: Video: mpeg4, yuv420p, 512x384 [PAR 1:1 DAR 4:3], 25 tbr, 25 tbn, 25 tbc
    Stream #0.0: Video: mpeg4, yuv420p, 480x360 [PAR 1:1 DAR 4:3], 29.97 tbr, 29.97 tbn, 30k tbc
    Stream #0.0: Video: mpeg4, yuv420p, 576x320 [PAR 1:1 DAR 9:5], 25 tbr, 25 tbn, 25 tbc
    Stream #0.0: Video: mpeg4, yuv420p, 512x384 [PAR 1:1 DAR 4:3], 29.97 tbr, 29.97 tbn, 29.98 tbc
    Stream #0.0: Video: mpeg4, yuv420p, 576x432 [PAR 1:1 DAR 4:3], 25 tbr, 25 tbn, 25 tbc
    Stream #0.0: Video: mpeg4, yuv420p, 640x352 [PAR 1:1 DAR 20:11], 29.97 tbr, 29.97 tbn, 29.98 tbc
    Stream #0.0: Video: mpeg4, yuv420p, 512x384 [PAR 1:1 DAR 4:3], 25 tbr, 25 tbn, 25 tbc
    Stream #0.0: Video: mpeg4, yuv420p, 640x352 [PAR 1:1 DAR 20:11], 29.97 tbr, 29.97 tbn, 29.98 tbc
    Stream #0.0: Video: mpeg4, yuv420p, 560x416 [PAR 1:1 DAR 35:26], 25 tbr, 25 tbn, 30k tbc
    Stream #0.0: Video: mpeg4, yuv420p, 512x384 [PAR 1:1 DAR 4:3], 25 tbr, 25 tbn, 25 tbc
    Stream #0.0: Video: mpeg4, yuv420p, 576x432 [PAR 1:1 DAR 4:3], 25 tbr, 25 tbn, 25 tbc
    Stream #0.0: Video: mpeg4, yuv420p, 576x320 [PAR 1:1 DAR 9:5], 25 tbr, 25 tbn, 25 tbc
    Stream #0.0: Video: mpeg4, yuv420p, 512x384 [PAR 1:1 DAR 4:3], 25 tbr, 25 tbn, 25 tbc
    Stream #0.0: Video: mpeg4, yuv420p, 512x384 [PAR 1:1 DAR 4:3], 25 tbr, 25 tbn, 25 tbc
    Stream #0.0: Video: mpeg4, yuv420p, 576x432 [PAR 1:1 DAR 4:3], 25 tbr, 25 tbn, 25 tbc
    Stream #0.0: Video: mpeg4, yuv420p, 592x336 [PAR 1:1 DAR 37:21], 29.97 tbr, 29.97 tbn, 29.98 tbc
    Stream #0.0: Video: mpeg4, yuv420p, 512x384 [PAR 1:1 DAR 4:3], 25 tbr, 25 tbn, 25 tbc
    Stream #0.0: Video: mpeg4, yuv420p, 512x384 [PAR 1:1 DAR 4:3], 25 tbr, 25 tbn, 25 tbc
    Stream #0.0: Video: mpeg4, yuv420p, 512x384 [PAR 1:1 DAR 4:3], 25 tbr, 25 tbn, 25 tbc
    Stream #0.0: Video: mpeg4, yuv420p, 512x384 [PAR 1:1 DAR 4:3], 25 tbr, 25 tbn, 25 tbc
    Stream #0.0: Video: mpeg4, yuv420p, 592x336 [PAR 1:1 DAR 37:21], 29.97 tbr, 29.97 tbn, 29.98 tbc
    Stream #0.0: Video: mpeg4, yuv420p, 576x432 [PAR 1:1 DAR 4:3], 25 tbr, 25 tbn, 25 tbc
    Stream #0.0: Video: mpeg4, yuv420p, 576x432 [PAR 1:1 DAR 4:3], 25 tbr, 25 tbn, 25 tbc
    Stream #0.0: Video: mpeg4, yuv420p, 576x432 [PAR 1:1 DAR 4:3], 25 tbr, 25 tbn, 25 tbc
    Stream #0.0: Video: mpeg4, yuv420p, 512x384 [PAR 1:1 DAR 4:3], 50.08 tbr, 25.06 tbn, 30k tbc
    Stream #0.0: Video: mpeg4, yuv420p, 512x384 [PAR 1:1 DAR 4:3], 25 tbr, 25 tbn, 25 tbc
    Stream #0.0: Video: vp6f, yuv420p, 720x576, 25 tbr, 1k tbn, 1k tbc
    Stream #0.0: Video: msmpeg4, yuv420p, 512x384, 29.97 tbr, 29.97 tbn, 29.97 tbc
    Stream #0.1: Video: wmv3, yuv420p, 640x480, 704 kb/s, 25 tbr, 1k tbn, 1k tbc
    Stream #0.0: Video: vp6f, yuv420p, 640x480, 25 tbr, 1k tbn, 1k tbc
    Stream #0.1: Video: wmv3, yuv420p, 640x480, 1650 kb/s, 29.97 tbr, 1k tbn, 1k tbc
    Stream #0.1: Video: wmv3, yuv420p, 640x480, 1650 kb/s, 29.97 tbr, 1k tbn, 1k tbc
    Stream #0.1: Video: wmv3, yuv420p, 640x480, 1650 kb/s, 29.97 tbr, 1k tbn, 1k tbc
    Stream #0.1: Video: wmv3, yuv420p, 640x480, 1650 kb/s, 29.97 tbr, 1k tbn, 1k tbc
    Stream #0.1: Video: wmv3, yuv420p, 640x480, 1650 kb/s, 29.97 tbr, 1k tbn, 1k tbc
    Stream #0.1: Video: wmv3, yuv420p, 640x480, 1650 kb/s, 29.97 tbr, 1k tbn, 1k tbc
    Stream #0.1: Video: wmv3, yuv420p, 640x480, 1650 kb/s, 29.97 tbr, 1k tbn, 1k tbc
    Stream #0.1: Video: wmv3, yuv420p, 640x480, 1650 kb/s, 29.97 tbr, 1k tbn, 1k tbc
    Stream #0.0: Video: vp6f, yuv420p, 720x576, 25 tbr, 1k tbn, 1k tbc
    Stream #0.0: Video: vp6f, yuv420p, 640x480, 30 tbr, 1k tbn, 1k tbc
    Stream #0.0: Video: mpeg4, yuv420p, 320x240 [PAR 1:1 DAR 4:3], 23.98 tbr, 23.98 tbn, 2997 tbc
    Stream #0.1[0x1e0]: Video: mpeg1video, yuv420p, 288x208 [PAR 1:1 DAR 18:13], 104857 kb/s, 29.97 tbr, 90k tbn, 29.97 tbc
    Stream #0.0: Video: vp6f, yuv420p, 640x480, 30 tbr, 1k tbn, 1k tbc
    Stream #0.0: Video: vp6f, yuv420p, 512x384, 25 tbr, 1k tbn, 1k tbc
    Stream #0.0: Video: vp6f, yuv420p, 636x424, 20 tbr, 1k tbn, 1k tbc
    Stream #0.0: Video: vp6f, yuv420p, 640x480, 25 tbr, 1k tbn, 1k tbc
    Stream #0.0: Video: vp6f, yuv420p, 640x360, 25 tbr, 1k tbn, 1k tbc
    Stream #0.0: Video: vp6f, yuv420p, 720x576, 25 tbr, 1k tbn, 1k tbc
    Stream #0.1: Video: wmv3, yuv420p, 640x480, 704 kb/s, 25 tbr, 1k tbn, 1k tbc
    Stream #0.0: Video: vp6f, yuv420p, 1024x576, 30 tbr, 1k tbn, 1k tbc
    Stream #0.1: Video: wmv3, yuv420p, 640x480, 1087 kb/s, 25 tbr, 1k tbn, 1k tbc
    Stream #0.0: Video: vp6f, yuv420p, 384x288, 15 tbr, 1k tbn, 1k tbc
    Stream #0.0: Video: vp6f, yuv420p, 384x288, 15 tbr, 1k tbn, 1k tbc
    Stream #0.0: Video: vp6f, yuv420p, 384x288, 15 tbr, 1k tbn, 1k tbc
    Stream #0.1: Video: wmv3, yuv420p, 640x480, 704 kb/s, 25 tbr, 1k tbn, 1k tbc
    Stream #0.0: Video: vp6f, yuv420p, 720x480, 29.97 tbr, 1k tbn, 1k tbc
    Stream #0.0: Video: vp6f, yuv420p, 640x360, 25 tbr, 1k tbn, 1k tbc
    Stream #0.0: Video: mpeg4, yuv420p, 512x384 [PAR 1:1 DAR 4:3], 29.97 tbr, 29.97 tbn, 29.98 tbc
    Stream #0.0: Video: mpeg4, yuv420p, 512x384 [PAR 1:1 DAR 4:3], 29.97 tbr, 29.97 tbn, 29.98 tbc
    Stream #0.0[0x1e0]: Video: mpeg1video, yuv420p, 352x240 [PAR 200:219 DAR 880:657], 1120 kb/s, 29.97 tbr, 90k tbn, 29.97 tbc
    Stream #0.1: Video: wmv1, yuv420p, 320x240, 314 kb/s, 30 tbr, 1k tbn, 1k tbc
    Stream #0.1: Video: wmv3, yuv420p, 640x480, 704 kb/s, 25 tbr, 1k tbn, 1k tbc
    Stream #0.0: Video: msmpeg4, 720x416, 25 tbr, 25 tbn, 25 tbc
    Stream #0.0: Video: mpeg4, yuv420p, 480x360 [PAR 1:1 DAR 4:3], 23.98 tbr, 23.98 tbn, 23.98 tbc
    Stream #0.0: Video: msmpeg4, yuv420p, 512x400, 25 tbr, 25 tbn, 25 tbc
    Stream #0.0: Video: msmpeg4, yuv420p, 512x400, 25 tbr, 25 tbn, 25 tbc
    Stream #0.0: Video: mpeg4, yuv420p, 512x384 [PAR 1:1 DAR 4:3], 25 tbr, 25 tbn, 25 tbc
    Stream #0.0: Video: msmpeg4, yuv420p, 384x284, 25.01 tbr, 25.01 tbn, 25.01 tbc
    Stream #0.0: Video: msmpeg4, yuv420p, 512x336, 25 tbr, 25 tbn, 25 tbc
    Stream #0.0: Video: msmpeg4, yuv420p, 512x400, 25 tbr, 25 tbn, 25 tbc
    Stream #0.0: Video: msmpeg4, yuv420p, 512x384, 25 tbr, 25 tbn, 25 tbc
    Stream #0.0: Video: vp6f, yuv420p, 640x480, 29.92 tbr, 1k tbn, 1k tbc
    Stream #0.0: Video: vp6f, yuv420p, 720x576, 25 tbr, 1k tbn, 1k tbc
    Stream #0.0: Video: vp6f, yuv420p, 720x576, 25 tbr, 1k tbn, 1k tbc
    Stream #0.0: Video: vp6f, yuv420p, 640x480, 30 tbr, 1k tbn, 1k tbc
    Stream #0.0: Video: vp6f, yuv420p, 720x576, 25 tbr, 1k tbn, 1k tbc
    Stream #0.0: Video: vp6f, yuv420p, 720x480, 29.92 tbr, 1k tbn, 1k tbc
    Stream #0.0: Video: mpeg4, yuv420p, 592x444 [PAR 1:1 DAR 4:3], 25 tbr, 25 tbn, 30k tbc
    Stream #0.0: Video: vp6f, yuv420p, 850x480, 29.97 tbr, 1k tbn, 1k tbc
    Stream #0.0[0x1e0]: Video: mpeg1video, yuv420p, 352x240 [PAR 200:219 DAR 880:657], 104857 kb/s, 29.97 tbr, 90k tbn, 29.97 tbc
    Stream #0.0: Video: vp6f, yuv420p, 360x240, 25 tbr, 1k tbn, 1k tbc
    Stream #0.0: Video: vp6f, yuv420p, 720x576, 25 tbr, 1k tbn, 1k tbc
    Stream #0.0: Video: vp6f, yuv420p, 720x540, 30 tbr, 1k tbn, 1k tbc
    Stream #0.0: Video: vp6f, yuv420p, 720x480, 29.97 tbr, 1k tbn, 1k tbc
    Stream #0.0: Video: vp6f, yuv420p, 720x480, 29.97 tbr, 1k tbn, 1k tbc
    Stream #0.1: Video: wmv3, yuv420p, 640x360, 1548 kb/s, PAR 1:1 DAR 16:9, 29.97 tbr, 1k tbn, 1k tbc
    Stream #0.0: Video: vp6f, yuv420p, 720x576, 25 tbr, 1k tbn, 1k tbc
    Stream #0.1: Video: wmv1, yuv420p, 320x240, 489 kb/s, 30 tbr, 1k tbn, 1k tbc
    Stream #0.0: Video: vp6f, yuv420p, 720x576, 29.97 tbr, 1k tbn, 1k tbc
    Stream #0.1: Video: msmpeg4v2, yuv420p, 320x240, 29.97 tbr, 1k tbn, 1k tbc
    Stream #0.0[0x1e0]: Video: mpeg1video, yuv420p, 352x288 [PAR 200:219 DAR 2200:1971], 1150 kb/s, 25 tbr, 90k tbn, 25 tbc
    Stream #0.1: Video: wmv3, yuv420p, 320x240, 304 kb/s, 30 tbr, 1k tbn, 1k tbc
    Stream #0.1: Video: wmv2, yuv420p, 320x240, 302 kb/s, 25 tbr, 1k tbn, 1k tbc
    Stream #0.1: Video: msmpeg4, yuv420p, 320x240, 2398 kb/s, 31.25 tbr, 1k tbn, 1k tbc
    Stream #0.0[0x1e0]: Video: mpeg1video, yuv420p, 352x288 [PAR 200:219 DAR 2200:1971], 1150 kb/s, 25 tbr, 90k tbn, 25 tbc
    Stream #0.0: Video: mjpeg, yuvj422p, 320x240, 15 tbr, 15 tbn, 15 tbc
    Stream #0.1: Video: wmv3, yuv420p, 320x240, 308 kb/s, 25 tbr, 1k tbn, 1k tbc
    Stream #0.0: Video: mjpeg, yuvj422p, 320x240, 30 tbr, 30 tbn, 30 tbc
    Stream #0.1: Video: wmv3, yuv420p, 320x240, 448 kb/s, 30 tbr, 1k tbn, 1k tbc
    Stream #0.0: Video: mpeg4, yuv420p, 320x240 [PAR 1:1 DAR 4:3], 29.97 tbr, 29.97 tbn, 30k tbc
    Stream #0.1: Video: wmv2, yuv420p, 320x240, 218 kb/s, 30 tbr, 1k tbn, 1k tbc
    Stream #0.1: Video: wmv3, yuv420p, 320x240, 108 kb/s, 15 tbr, 1k tbn, 1k tbc
    Stream #0.1: Video: wmv3, yuv420p, 320x240, 500 kb/s, 30 tbr, 1k tbn, 1k tbc
    Stream #0.1: Video: wmv1, yuv420p, 320x240, 632 kb/s, 29.97 tbr, 1k tbn, 1k tbc
    Stream #0.0: Video: mpeg4, 640x480, 25 tbr, 25 tbn, 25 tbc
    Stream #0.0[0x1e0]: Video: mpeg1video, yuv420p, 320x240 [PAR 1:1 DAR 4:3], 1843 kb/s, 29.97 tbr, 90k tbn, 29.97 tbc
    Stream #0.0: Video: mjpeg, yuvj422p, 320x240, 15 tbr, 15 tbn, 15 tbc
    Stream #0.0: Video: vp6f, yuv420p, 640x480, 25 tbr, 1k tbn, 1k tbc
    Stream #0.1: Video: wmv2, yuv420p, 320x240, 30 tbr, 1k tbn, 1k tbc
    Stream #0.1[0x1e0]: Video: mpeg1video, yuv420p, 352x240 [PAR 1:1 DAR 22:15], 1152 kb/s, 29.97 tbr, 90k tbn, 29.97 tbc
    Stream #0.0: Video: mjpeg, yuvj420p, 320x240, 19.62 tbr, 19.62 tbn, 19.62 tbc
    Stream #0.0: Video: vp6f, yuv420p, 352x240, 29.97 tbr, 1k tbn, 1k tbc
    Stream #0.1[0x1e0]: Video: mpeg1video, yuv420p, 640x480 [PAR 1:1 DAR 4:3], 104857 kb/s, 25 tbr, 90k tbn, 25 tbc
    Stream #0.1[0x1e0]: Video: mpeg1video, yuv420p, 640x480 [PAR 1:1 DAR 4:3], 104857 kb/s, 25 tbr, 90k tbn, 25 tbc
    Stream #0.1: Video: wmv3, yuv420p, 320x240, 250 kb/s, 15 tbr, 1k tbn, 1k tbc
    Stream #0.0[0x1e0]: Video: mpeg1video, yuv420p, 352x288 [PAR 178:163 DAR 1958:1467], 1500 kb/s, 25 tbr, 90k tbn, 25 tbc
    Stream #0.1: Video: wmv1, yuv420p, 512x384, 1368 kb/s, 25 tbr, 1k tbn, 1k tbc
    Stream #0.0: Video: mpeg4, yuv420p, 512x384 [PAR 1:1 DAR 4:3], 25 tbr, 25 tbn, 25 tbc
    Stream #0.0: Video: mpeg4, yuv420p, 576x432 [PAR 1:1 DAR 4:3], 25 tbr, 25 tbn, 25 tbc
    Stream #0.0: Video: mpeg4, yuv420p, 512x384 [PAR 1:1 DAR 4:3], 25 tbr, 25 tbn, 30k tbc
    Stream #0.0: Video: mpeg4, yuv420p, 512x384 [PAR 1:1 DAR 4:3], 25 tbr, 25 tbn, 25 tbc
    Stream #0.0: Video: mpeg4, yuv420p, 576x432 [PAR 1:1 DAR 4:3], 25 tbr, 25 tbn, 25 tbc
    Stream #0.0: Video: mpeg4, yuv420p, 576x320 [PAR 1:1 DAR 9:5], 25 tbr, 25 tbn, 25 tbc
    Stream #0.0: Video: mpeg4, yuv420p, 512x384 [PAR 1:1 DAR 4:3], 25 tbr, 25 tbn, 25 tbc
    Stream #0.0: Video: msmpeg4, yuv420p, 512x384, 25 tbr, 25 tbn, 25 tbc
    Stream #0.0: Video: mpeg4, yuv420p, 576x320 [PAR 1:1 DAR 9:5], 25 tbr, 25 tbn, 25 tbc
    Stream #0.0: Video: vp6f, yuv420p, 720x480, 29.97 tbr, 1k tbn, 1k tbc
    Stream #0.0: Video: vp6f, yuv420p, 720x480, 29.97 tbr, 1k tbn, 1k tbc
    Stream #0.0: Video: vp6f, yuv420p, 512x384, 30 tbr, 1k tbn, 1k tbc
    Stream #0.0: Video: vp6f, yuv420p, 512x384, 30 tbr, 1k tbn, 1k tbc
    Stream #0.0: Video: vp6f, yuv420p, 720x576, 25 tbr, 1k tbn, 1k tbc
    Stream #0.0: Video: vp6f, yuv420p, 640x480, 30 tbr, 1k tbn, 1k tbc
    Stream #0.0: Video: vp6f, yuv420p, 720x576, 25 tbr, 1k tbn, 1k tbc
    Stream #0.0: Video: vp6f, yuv420p, 640x480, 30 tbr, 1k tbn, 1k tbc
    Stream #0.0: Video: vp6f, yuv420p, 720x576, 25 tbr, 1k tbn, 1k tbc
    Stream #0.0: Video: vp6f, yuv420p, 720x480, 29.97 tbr, 1k tbn, 1k tbc
    Stream #0.0: Video: vp6f, yuv420p, 720x576, 25 tbr, 1k tbn, 1k tbc
    Stream #0.0: Video: vp6f, yuv420p, 512x288, 25 tbr, 1k tbn, 1k tbc
    Stream #0.0: Video: vp6f, yuv420p, 720x576, 25 tbr, 1k tbn, 1k tbc
    Stream #0.0: Video: vp6f, yuv420p, 640x480, 30 tbr, 1k tbn, 1k tbc
    Stream #0.0: Video: vp6f, yuv420p, 720x480, 29.97 tbr, 1k tbn, 1k tbc
    Stream #0.0: Video: vp6f, yuv420p, 720x480, 29.97 tbr, 1k tbn, 1k tbc
    Stream #0.0: Video: vp6f, yuv420p, 720x576, 25 tbr, 1k tbn, 1k tbc
    Stream #0.0: Video: vp6f, yuv420p, 720x480, 30 tbr, 1k tbn, 1k tbc
    Stream #0.0: Video: vp6f, yuv420p, 512x384, 30 tbr, 1k tbn, 1k tbc
    Stream #0.0: Video: vp6f, yuv420p, 352x240, 29.97 tbr, 1k tbn, 1k tbc
    Stream #0.0: Video: vp6f, yuv420p, 384x288, 15 tbr, 1k tbn, 1k tbc
    Stream #0.0: Video: vp6f, yuv420p, 480x288, 25 tbr, 1k tbn, 1k tbc
    Stream #0.0: Video: vp6f, yuv420p, 1280x720, 14.99 tbr, 1k tbn, 1k tbc
    Stream #0.0: Video: vp6f, yuv420p, 720x576, 25 tbr, 1k tbn, 1k tbc
    Stream #0.1: Video: wmv3, yuv420p, 640x480, 1372 kb/s, 25 tbr, 1k tbn, 1k tbc
    Stream #0.0: Video: vp6f, yuv420p, 636x424, 20 tbr, 1k tbn, 1k tbc
    Stream #0.0: Video: vp6f, yuv420p, 720x576, 25 tbr, 1k tbn, 1k tbc
    Stream #0.0: Video: vp6f, yuv420p, 384x288, 23.98 tbr, 1k tbn, 1k tbc
    Stream #0.0: Video: vp6f, yuv420p, 512x384, 30 tbr, 1k tbn, 1k tbc
    Stream #0.0: Video: mpeg4, yuv420p, 512x384 [PAR 1:1 DAR 4:3], 29.97 tbr, 29.97 tbn, 29.98 tbc
    Stream #0.0: Video: mpeg4, yuv420p, 624x352 [PAR 1:1 DAR 39:22], 29.97 tbr, 29.97 tbn, 29.98 tbc
    Stream #0.0: Video: mpeg4, yuv420p, 576x320 [PAR 1:1 DAR 9:5], 29.97 tbr, 29.97 tbn, 29.98 tbc
    Stream #0.0: Video: mpeg4, yuv420p, 576x320 [PAR 1:1 DAR 9:5], 23.98 tbr, 23.98 tbn, 23.98 tbc
    Stream #0.0: Video: mpeg4, yuv420p, 576x432 [PAR 1:1 DAR 4:3], 29.97 tbr, 29.97 tbn, 29.98 tbc
    Stream #0.0: Video: mpeg4, yuv420p, 352x288 [PAR 1:1 DAR 11:9], 25 tbr, 25 tbn, 30k tbc
    Stream #0.0: Video: mpeg4, yuv420p, 480x352 [PAR 1:1 DAR 15:11], 29.97 tbr, 29.97 tbn, 29.98 tbc
    Stream #0.0: Video: vp6f, yuv420p, 720x576, 25 tbr, 1k tbn, 1k tbc
    Stream #0.0: Video: vp6f, yuv420p, 720x576, 25 tbr, 1k tbn, 1k tbc
    Stream #0.0: Video: vp6f, yuv420p, 720x576, 25 tbr, 1k tbn, 1k tbc
    Stream #0.0: Video: mpeg4, yuv420p, 512x384 [PAR 1:1 DAR 4:3], 29.97 tbr, 29.97 tbn, 29.98 tbc
    Stream #0.0: Video: mpeg4, yuv420p, 576x320 [PAR 1:1 DAR 9:5], 25 tbr, 25 tbn, 25 tbc
    Stream #0.0: Video: mpeg4, yuv420p, 576x432 [PAR 1:1 DAR 4:3], 29.97 tbr, 29.97 tbn, 29.98 tbc
    Stream #0.0: Video: mpeg4, yuv420p, 576x432 [PAR 1:1 DAR 4:3], 29.97 tbr, 29.97 tbn, 29.98 tbc
    Stream #0.0: Video: mpeg4, yuv420p, 352x288 [PAR 1:1 DAR 11:9], 25 tbr, 25 tbn, 30k tbc
    Stream #0.0: Video: mpeg4, yuv420p, 576x320 [PAR 1:1 DAR 9:5], 29.97 tbr, 29.97 tbn, 29.98 tbc
    Stream #0.0: Video: mpeg4, yuv420p, 512x384 [PAR 1:1 DAR 4:3], 29.97 tbr, 29.97 tbn, 29.98 tbc
    Stream #0.0: Video: mpeg4, yuv420p, 512x384 [PAR 1:1 DAR 4:3], 29.97 tbr, 29.97 tbn, 29.97 tbc
    Stream #0.0: Video: mpeg4, yuv420p, 576x320 [PAR 1:1 DAR 9:5], 29.97 tbr, 29.97 tbn, 29.98 tbc
    Stream #0.1: Video: wmv3, yuv420p, 850x480, 2000 kb/s, 29.97 tbr, 1k tbn, 1k tbc
    Stream #0.0: Video: mpeg4, yuv420p, 496x384 [PAR 1:1 DAR 31:24], 29.97 tbr, 29.97 tbn, 29.98 tbc
    Stream #0.0: Video: mpeg4, yuv420p, 512x288 [PAR 1:1 DAR 16:9], 29.97 tbr, 29.97 tbn, 29.98 tbc
    Stream #0.0: Video: mpeg4, yuv420p, 576x320 [PAR 1:1 DAR 9:5], 25 tbr, 25 tbn, 25 tbc
    Stream #0.0: Video: mpeg4, yuv420p, 576x432 [PAR 1:1 DAR 4:3], 29.97 tbr, 29.97 tbn, 29.98 tbc
    Stream #0.0: Video: mpeg4, yuv420p, 576x320 [PAR 1:1 DAR 9:5], 25 tbr, 25 tbn, 25 tbc
    Stream #0.0: Video: mpeg4, yuv420p, 512x384 [PAR 1:1 DAR 4:3], 29.97 tbr, 29.97 tbn, 29.98 tbc
    Stream #0.0: Video: mpeg4, yuv420p, 512x384 [PAR 1:1 DAR 4:3], 29.97 tbr, 29.97 tbn, 29.97 tbc
    Stream #0.0: Video: mpeg4, yuv420p, 512x384 [PAR 1:1 DAR 4:3], 29.97 tbr, 29.97 tbn, 29.98 tbc
    Stream #0.0: Video: mpeg4, yuv420p, 576x320 [PAR 1:1 DAR 9:5], 25 tbr, 25 tbn, 25 tbc
    Stream #0.0: Video: mpeg4, yuv420p, 624x352 [PAR 1:1 DAR 39:22], 29.97 tbr, 29.97 tbn, 29.98 tbc
    Stream #0.0: Video: mpeg4, yuv420p, 576x320 [PAR 1:1 DAR 9:5], 23.98 tbr, 23.98 tbn, 23.98 tbc
    Stream #0.0: Video: mpeg4, yuv420p, 576x432 [PAR 1:1 DAR 4:3], 29.97 tbr, 29.97 tbn, 29.98 tbc
    Stream #0.0: Video: mpeg4, yuv420p, 512x384 [PAR 1:1 DAR 4:3], 29.97 tbr, 29.97 tbn, 29.98 tbc
    Stream #0.0: Video: mpeg4, yuv420p, 576x320 [PAR 1:1 DAR 9:5], 25 tbr, 25 tbn, 25 tbc
    Stream #0.0: Video: mpeg4, yuv420p, 576x320 [PAR 1:1 DAR 9:5], 29.97 tbr, 29.97 tbn, 29.98 tbc
    Stream #0.0: Video: mpeg4, yuv420p, 512x384 [PAR 1:1 DAR 4:3], 29.97 tbr, 29.97 tbn, 29.98 tbc
    Stream #0.0: Video: mpeg4, yuv420p, 512x272 [PAR 1:1 DAR 32:17], 29.97 tbr, 29.97 tbn, 29.98 tbc
    Stream #0.0: Video: mpeg4, yuv420p, 576x320 [PAR 1:1 DAR 9:5], 25 tbr, 25 tbn, 25 tbc
    Stream #0.0: Video: mpeg4, yuv420p, 512x384 [PAR 1:1 DAR 4:3], 29.97 tbr, 29.97 tbn, 29.98 tbc
    Stream #0.0: Video: wmv3, yuv420p, 720x540, 1500 kb/s, 29.97 tbr, 1k tbn, 1k tbc
    Stream #0.0: Video: mpeg4, yuv420p, 576x320 [PAR 1:1 DAR 9:5], 23.98 tbr, 23.98 tbn, 23.98 tbc
    Stream #0.0: Video: mpeg4, yuv420p, 576x320 [PAR 1:1 DAR 9:5], 23.98 tbr, 23.98 tbn, 23.98 tbc
    Stream #0.0: Video: mpeg4, yuv420p, 576x320 [PAR 1:1 DAR 9:5], 25 tbr, 25 tbn, 25 tbc
    Stream #0.0: Video: msmpeg4, yuv420p, 320x240, 25 tbr, 25 tbn, 25 tbc
    Stream #0.0: Video: vp6f, yuv420p, 720x540, 30 tbr, 1k tbn, 1k tbc
    Stream #0.0: Video: msmpeg4v2, yuv420p, 350x248, 25 tbr, 25 tbn, 25 tbc
    Stream #0.0: Video: mpeg4, yuv420p, 512x384 [PAR 1:1 DAR 4:3], 23.98 tbr, 23.98 tbn, 25 tbc
    Stream #0.0: Video: mpeg4, yuv420p, 512x384 [PAR 1:1 DAR 4:3], 23.98 tbr, 23.98 tbn, 23.98 tbc
    Stream #0.0: Video: mpeg4, yuv420p, 512x384 [PAR 1:1 DAR 4:3], 23.98 tbr, 23.98 tbn, 25 tbc
    Stream #0.0: Video: mpeg4, yuv420p, 512x384 [PAR 1:1 DAR 4:3], 23.98 tbr, 23.98 tbn, 25 tbc
    Stream #0.0: Video: mpeg4, yuv420p, 512x384 [PAR 1:1 DAR 4:3], 23.98 tbr, 23.98 tbn, 25 tbc
    Stream #0.0: Video: mpeg4, yuv420p, 512x384 [PAR 1:1 DAR 4:3], 23.98 tbr, 23.98 tbn, 25 tbc
    Stream #0.0: Video: vp6f, yuv420p, 352x240, 29.97 tbr, 1k tbn, 1k tbc
    Stream #0.0: Video: mpeg4, yuv420p, 352x288 [PAR 1:1 DAR 11:9], 25 tbr, 25 tbn, 25 tbc
    Stream #0.0[0x1e0]: Video: mpeg1video, yuv420p, 256x192 [PAR 1:1 DAR 4:3], 334 kb/s, 24 tbr, 90k tbn, 24 tbc
    Stream #0.0: Video: vp6f, yuv420p, 720x480, 29.97 tbr, 1k tbn, 1k tbc
    Stream #0.0: Video: vp6f, yuv420p, 768x576, 30 tbr, 1k tbn, 1k tbc
    Stream #0.0: Video: vp6f, yuv420p, 320x240, 30 tbr, 1k tbn, 1k tbc
    Stream #0.0: Video: vp6f, yuv420p, 720x480, 29.97 tbr, 1k tbn, 1k tbc
    Stream #0.0: Video: vp6f, yuv420p, 720x480, 29.97 tbr, 1k tbn, 1k tbc
    Stream #0.0: Video: mpeg4, yuv420p, 320x240 [PAR 1:1 DAR 4:3], 25 tbr, 25 tbn, 25 tbc
    Stream #0.0: Video: vp6f, yuv420p, 720x480, 30 tbr, 1k tbn, 1k tbc
    Stream #0.0: Video: vp6f, yuv420p, 720x576, 25 tbr, 1k tbn, 1k tbc
    Stream #0.0: Video: vp6f, yuv420p, 352x240, 29.97 tbr, 1k tbn, 1k tbc
    Stream #0.1: Video: wmv3, yuv420p, 640x480, 830 kb/s, 25 tbr, 1k tbn, 1k tbc
    Stream #0.0: Video: msmpeg4, yuv420p, 640x496, 29.97 tbr, 29.97 tbn, 29.97 tbc
    Stream #0.1: Video: wmv2, yuv420p, 352x288, 636 kb/s, 30 tbr, 1k tbn, 1k tbc
    Stream #0.0: Video: vp6f, yuv420p, 512x384, 25 tbr, 1k tbn, 1k tbc
    Stream #0.0: Video: vp6f, yuv420p, 720x576, 25 tbr, 1k tbn, 1k tbc
    Stream #0.0: Video: vp6f, yuv420p, 512x384, 30 tbr, 1k tbn, 1k tbc
    Stream #0.0: Video: vp6f, yuv420p, 512x384, 30 tbr, 1k tbn, 1k tbc
    Stream #0.0: Video: vp6f, yuv420p, 512x384, 30 tbr, 1k tbn, 1k tbc
    Stream #0.0: Video: vp6f, yuv420p, 512x384, 30 tbr, 1k tbn, 1k tbc
    Stream #0.0: Video: mpeg4, yuv420p, 320x256 [PAR 1:1 DAR 5:4], PAR 65536:65535 DAR 16384:13107, 25 tbr, 25 tbn, 25 tbc
    Stream #0.0: Video: vp6f, yuv420p, 640x480, 23.98 tbr, 1k tbn, 1k tbc
    Stream #0.0: Video: vp6f, yuv420p, 640x480, 23.98 tbr, 1k tbn, 1k tbc
    Stream #0.0: Video: mpeg4, yuv420p, 720x400 [PAR 1:1 DAR 9:5], 29.97 tbr, 29.97 tbn, 30k tbc
    Stream #0.1: Video: wmv2, yuv420p, 352x288, 636 kb/s, 30 tbr, 1k tbn, 1k tbc
    Stream #0.0: Video: mpeg4, yuv420p, 512x384 [PAR 1:1 DAR 4:3], 29.97 tbr, 29.97 tbn, 29.98 tbc
    Stream #0.0: Video: mpeg4, yuv420p, 512x384 [PAR 1:1 DAR 4:3], 29.97 tbr, 29.97 tbn, 29.98 tbc
    Stream #0.0: Video: mpeg4, yuv420p, 512x384 [PAR 1:1 DAR 4:3], 29.97 tbr, 29.97 tbn, 29.98 tbc
    Stream #0.0: Video: mpeg4, yuv420p, 512x384 [PAR 1:1 DAR 4:3], 29.97 tbr, 29.97 tbn, 29.98 tbc
    Stream #0.0: Video: mpeg4, yuv420p, 512x384 [PAR 1:1 DAR 4:3], 29.97 tbr, 29.97 tbn, 29.98 tbc
    Stream #0.0: Video: mpeg4, yuv420p, 512x384 [PAR 1:1 DAR 4:3], 29.97 tbr, 29.97 tbn, 29.98 tbc
    Stream #0.0: Video: vp6f, yuv420p, 352x240, 29.97 tbr, 1k tbn, 1k tbc
    Stream #0.1: Video: wmv3, yuv420p, 720x406, 1498 kb/s, 29.97 tbr, 1k tbn, 1k tbc
    Stream #0.0: Video: vp6f, yuv420p, 720x480, 29.97 tbr, 1k tbn, 1k tbc
    Stream #0.0: Video: vp6f, yuv420p, 720x480, 29.97 tbr, 1k tbn, 1k tbc
    Stream #0.0: Video: vp6f, yuv420p, 720x480, 29.97 tbr, 1k tbn, 1k tbc
    Stream #0.0: Video: vp6f, yuv420p, 720x480, 29.97 tbr, 1k tbn, 1k tbc
    Stream #0.0: Video: vp6f, yuv420p, 720x480, 29.97 tbr, 1k tbn, 1k tbc
    Stream #0.0: Video: mpeg4, yuv420p, 640x480 [PAR 1:1 DAR 4:3], 25.50 tbr, 25.50 tbn, 25.51 tbc
    Stream #0.0: Video: vp6f, yuv420p, 512x368, 29.97 tbr, 1k tbn, 1k tbc
    Stream #0.0: Video: vp6f, yuv420p, 720x540, 30 tbr, 1k tbn, 1k tbc
    Stream #0.1: Video: wmv2, yuv420p, 352x288, 636 kb/s, 30 tbr, 1k tbn, 1k tbc
    Stream #0.0: Video: vp6f, yuv420p, 720x576, 25 tbr, 1k tbn, 1k tbc
    Stream #0.0: Video: vp6f, yuv420p, 640x480, 29.92 tbr, 1k tbn, 1k tbc
    Stream #0.0: Video: vp6f, yuv420p, 320x240, 30 tbr, 1k tbn, 1k tbc
    Stream #0.0: Video: vp6f, yuv420p, 720x480, 29.97 tbr, 1k tbn, 1k tbc
    Stream #0.0: Video: vp6f, yuv420p, 720x480, 29.97 tbr, 1k tbn, 1k tbc
    Stream #0.0: Video: vp6f, yuv420p, 720x480, 29.97 tbr, 1k tbn, 1k tbc
    Stream #0.0: Video: vp6f, yuv420p, 720x480, 29.97 tbr, 1k tbn, 1k tbc
    Stream #0.0: Video: vp6f, yuv420p, 720x480, 29.97 tbr, 1k tbn, 1k tbc
    Stream #0.0: Video: vp6f, yuv420p, 720x480, 29.97 tbr, 1k tbn, 1k tbc
    Stream #0.0: Video: vp6f, yuv420p, 584x389, 29.97 tbr, 1k tbn, 1k tbc
    Stream #0.0: Video: vp6f, yuv420p, 720x480, 29.97 tbr, 1k tbn, 1k tbc
    Stream #0.0: Video: vp6f, yuv420p, 640x480, 29.97 tbr, 1k tbn, 1k tbc
    Stream #0.0: Video: msmpeg4v2, yuv420p, 320x240, 12.50 tbr, 12.50 tbn, 12.50 tbc
    Stream #0.0[0x1e0]: Video: mpeg1video, yuv420p, 320x256 [PAR 178:163 DAR 445:326], 700 kb/s, 25 tbr, 90k tbn, 25 tbc
    Stream #0.1: Video: wmv3, yuv420p, 480x360, 400 kb/s, 29.97 tbr, 1k tbn, 1k tbc
    Stream #0.1: Video: wmv3, yuv420p, 480x360, 400 kb/s, 29.97 tbr, 1k tbn, 1k tbc
    Stream #0.1: Video: vc1, yuv420p, 720x540, 2000 kb/s, PAR 1:1 DAR 4:3, 29.97 tbr, 1k tbn, 1k tbc
    Stream #0.1: Video: vc1, yuv420p, 960x540, 2000 kb/s, PAR 1:1 DAR 16:9, 29.97 tbr, 1k tbn, 1k tbc
    Stream #0.1: Video: wmv3, yuv420p, 480x360, 400 kb/s, 29.97 tbr, 1k tbn, 1k tbc
    Stream #0.1: Video: vc1, yuv420p, 960x540, 2000 kb/s, PAR 1:1 DAR 16:9, 29.97 tbr, 1k tbn, 1k tbc
    Stream #0.1: Video: wmv3, yuv420p, 850x480, 2000 kb/s, 29.97 tbr, 1k tbn, 1k tbc
    Stream #0.1: Video: wmv3, yuv420p, 480x360, 400 kb/s, 29.97 tbr, 1k tbn, 1k tbc
    Stream #0.1: Video: vc1, yuv420p, 720x540, 2000 kb/s, PAR 1:1 DAR 4:3, 29.97 tbr, 1k tbn, 1k tbc
    Stream #0.1: Video: vc1, yuv420p, 720x540, 2000 kb/s, PAR 1:1 DAR 4:3, 29.97 tbr, 1k tbn, 1k tbc
    Stream #0.1: Video: vc1, yuv420p, 720x540, 2000 kb/s, PAR 1:1 DAR 4:3, 29.97 tbr, 1k tbn, 1k tbc
    Stream #0.1: Video: wmv3, yuv420p, 480x360, 400 kb/s, 29.97 tbr, 1k tbn, 1k tbc
    Stream #0.1: Video: wmv3, yuv420p, 720x540, 1024 kb/s, 29.97 tbr, 1k tbn, 1k tbc
    Stream #0.1: Video: vc1, yuv420p, 960x540, 2000 kb/s, PAR 1:1 DAR 16:9, 29.97 tbr, 1k tbn, 1k tbc
    Stream #0.1: Video: vc1, yuv420p, 810x540, 2000 kb/s, PAR 1:1 DAR 3:2, 29.97 tbr, 1k tbn, 1k tbc
    Stream #0.1: Video: wmv3, yuv420p, 480x360, 400 kb/s, 29.97 tbr, 1k tbn, 1k tbc
    Stream #0.1: Video: wmv3, yuv420p, 480x360, 400 kb/s, 29.97 tbr, 1k tbn, 1k tbc
    Stream #0.1: Video: wmv3, yuv420p, 480x360, 400 kb/s, 29.97 tbr, 1k tbn, 1k tbc
    Stream #0.1: Video: wmv3, yuv420p, 480x360, 400 kb/s, 29.97 tbr, 1k tbn, 1k tbc
    Stream #0.1: Video: wmv3, yuv420p, 850x480, 2000 kb/s, 29.97 tbr, 1k tbn, 1k tbc
    Stream #0.1: Video: wmv3, yuv420p, 480x360, 400 kb/s, 29.97 tbr, 1k tbn, 1k tbc
    Stream #0.1: Video: wmv3, yuv420p, 720x540, 1024 kb/s, 29.97 tbr, 1k tbn, 1k tbc
    Stream #0.1: Video: wmv3, yuv420p, 480x360, 400 kb/s, 29.97 tbr, 1k tbn, 1k tbc
    Stream #0.1: Video: wmv3, yuv420p, 480x360, 400 kb/s, 29.97 tbr, 1k tbn, 1k tbc
    Stream #0.1: Video: wmv3, yuv420p, 480x360, 400 kb/s, 29.97 tbr, 1k tbn, 1k tbc
    Stream #0.1: Video: vc1, yuv420p, 720x540, 2000 kb/s, PAR 1:1 DAR 4:3, 29.97 tbr, 1k tbn, 1k tbc
    Stream #0.1: Video: wmv3, yuv420p, 480x360, 400 kb/s, 29.97 tbr, 1k tbn, 1k tbc
    Stream #0.1: Video: vc1, yuv420p, 810x540, 2000 kb/s, PAR 1:1 DAR 3:2, 29.97 tbr, 1k tbn, 1k tbc
    Stream #0.1: Video: wmv3, yuv420p, 850x480, 2000 kb/s, 29.97 tbr, 1k tbn, 1k tbc
    Stream #0.1: Video: wmv3, yuv420p, 480x360, 400 kb/s, 29.97 tbr, 1k tbn, 1k tbc
    Stream #0.1: Video: vc1, yuv420p, 720x540, 2000 kb/s, PAR 1:1 DAR 4:3, 29.97 tbr, 1k tbn, 1k tbc
    Stream #0.0[0x1e0]: Video: mpeg1video, yuv420p, 320x240 [PAR 1:1 DAR 4:3], 1150 kb/s, 29.97 tbr, 90k tbn, 29.97 tbc
    Stream #0.1: Video: wmv3, yuv420p, 480x360, 400 kb/s, 29.97 tbr, 1k tbn, 1k tbc
    Stream #0.1: Video: wmv3, yuv420p, 480x360, 400 kb/s, 29.97 tbr, 1k tbn, 1k tbc
    Stream #0.1: Video: wmv3, yuv420p, 480x360, 400 kb/s, 29.97 tbr, 1k tbn, 1k tbc
    Stream #0.1: Video: vc1, yuv420p, 720x540, 2000 kb/s, PAR 1:1 DAR 4:3, 29.97 tbr, 1k tbn, 1k tbc
    Stream #0.1: Video: wmv3, yuv420p, 480x360, 400 kb/s, 29.97 tbr, 1k tbn, 1k tbc
    Stream #0.1: Video: vc1, yuv420p, 810x540, 2000 kb/s, PAR 1:1 DAR 3:2, 29.97 tbr, 1k tbn, 1k tbc
    Stream #0.1: Video: wmv3, yuv420p, 480x360, 400 kb/s, 29.97 tbr, 1k tbn, 1k tbc
    Stream #0.1: Video: wmv3, yuv420p, 720x540, 1024 kb/s, 29.97 tbr, 1k tbn, 1k tbc
    Stream #0.1: Video: vc1, yuv420p, 810x540, 2000 kb/s, PAR 1:1 DAR 3:2, 29.97 tbr, 1k tbn, 1k tbc
    Stream #0.1: Video: wmv3, yuv420p, 480x360, 400 kb/s, 29.97 tbr, 1k tbn, 1k tbc
    Stream #0.1: Video: wmv3, yuv420p, 480x360, 512 kb/s, 29.97 tbr, 1k tbn, 1k tbc
    Stream #0.0: Video: vp6f, yuv420p, 720x480, 29.97 tbr, 1k tbn, 1k tbc
    Stream #0.0: Video: vp6f, yuv420p, 720x480, 29.97 tbr, 1k tbn, 1k tbc
    Stream #0.0: Video: vp6f, yuv420p, 720x480, 29.97 tbr, 1k tbn, 1k tbc
    Stream #0.0: Video: vp6f, yuv420p, 720x480, 29.97 tbr, 1k tbn, 1k tbc
    Stream #0.0: Video: vp6f, yuv420p, 720x480, 29.97 tbr, 1k tbn, 1k tbc
    Stream #0.0: Video: vp6f, yuv420p, 720x480, 29.97 tbr, 1k tbn, 1k tbc
    Stream #0.0: Video: vp6f, yuv420p, 720x480, 29.97 tbr, 1k tbn, 1k tbc
    Stream #0.0: Video: vp6f, yuv420p, 720x480, 29.97 tbr, 1k tbn, 1k tbc
    Stream #0.0: Video: vp6f, yuv420p, 720x480, 29.97 tbr, 1k tbn, 1k tbc
    Stream #0.0[0x1e0]: Video: mpeg1video, yuv420p, 352x240 [PAR 200:219 DAR 880:657], 1150 kb/s, 29.97 tbr, 90k tbn, 29.97 tbc
    Stream #0.1: Video: wmv2, yuv420p, 352x288, 636 kb/s, 30 tbr, 1k tbn, 1k tbc
    Stream #0.0: Video: vp6f, yuv420p, 720x480, 29.97 tbr, 1k tbn, 1k tbc
    Stream #0.0: Video: vp6f, yuv420p, 720x480, 29.97 tbr, 1k tbn, 1k tbc
    Stream #0.0: Video: vp6f, yuv420p, 720x480, 29.97 tbr, 1k tbn, 1k tbc
    Stream #0.0: Video: mpeg4, yuv420p, 320x240, 25 tbr, 25 tbn, 30k tbc
    Stream #0.0: Video: vp6f, yuv420p, 720x480, 29.97 tbr, 1k tbn, 1k tbc
    Stream #0.0: Video: vp6f, yuv420p, 640x480, 25 tbr, 1k tbn, 1k tbc
    Stream #0.0: Video: vp6f, yuv420p, 480x360, 30 tbr, 1k tbn, 1k tbc
    Stream #0.0: Video: vp6f, yuv420p, 720x480, 29.97 tbr, 1k tbn, 1k tbc
    Stream #0.0: Video: vp6f, yuv420p, 720x480, 29.97 tbr, 1k tbn, 1k tbc
    Stream #0.0: Video: vp6f, yuv420p, 720x480, 29.97 tbr, 1k tbn, 1k tbc
    Stream #0.0: Video: vp6f, yuv420p, 720x480, 29.97 tbr, 1k tbn, 1k tbc
    Stream #0.0: Video: vp6f, yuv420p, 720x480, 29.97 tbr, 1k tbn, 1k tbc
    Stream #0.0: Video: msmpeg4, yuv420p, 640x480, 25 tbr, 25 tbn, 25 tbc
    Stream #0.1: Video: wmv2, yuv420p, 352x288, 636 kb/s, 30 tbr, 1k tbn, 1k tbc
    Stream #0.1: Video: wmv2, yuv420p, 352x288, 636 kb/s, 30 tbr, 1k tbn, 1k tbc
    Stream #0.0: Video: vp6f, yuv420p, 720x480, 29.97 tbr, 1k tbn, 1k tbc
    Stream #0.1: Video: wmv2, yuv420p, 320x240, 185 kb/s, 25 tbr, 1k tbn, 1k tbc
    Stream #0.1: Video: wmv2, yuv420p, 352x288, 636 kb/s, 30 tbr, 1k tbn, 1k tbc
    Stream #0.1: Video: wmv2, yuv420p, 352x288, 636 kb/s, 30 tbr, 1k tbn, 1k tbc
    Stream #0.1: Video: wmv2, yuv420p, 208x160, 186 kb/s, 25 tbr, 1k tbn, 1k tbc
    Stream #0.0: Video: vp6f, yuv420p, 720x480, 29.97 tbr, 1k tbn, 1k tbc
    Stream #0.1: Video: wmv2, yuv420p, 352x288, 636 kb/s, 30 tbr, 1k tbn, 1k tbc
    Stream #0.0: Video: vp6f, yuv420p, 640x360, 25 tbr, 1k tbn, 1k tbc
    Stream #0.0: Video: mpeg4, yuv420p, 320x240 [PAR 1:1 DAR 4:3], 23.98 tbr, 23.98 tbn, 23.98 tbc
    Stream #0.0: Video: vp6f, yuv420p, 720x480, 29.97 tbr, 1k tbn, 1k tbc
    Stream #0.0[0x1e0]: Video: mpeg1video, yuv420p, 352x272 [PAR 178:163 DAR 3916:2771], 600 kb/s, 25 tbr, 90k tbn, 25 tbc
    Stream #0.0[0x1e0]: Video: mpeg2video, yuv420p, 720x480 [PAR 8:9 DAR 4:3], 8000 kb/s, 29.97 tbr, 90k tbn, 59.94 tbc
    Stream #0.1: Video: wmv3, yuv420p, 640x480, 1500 kb/s, 29.97 tbr, 1k tbn, 1k tbc
    Stream #0.0: Video: mpeg4, yuv420p, 512x288 [PAR 1:1 DAR 16:9], 23.98 tbr, 23.98 tbn, 23.98 tbc
    Stream #0.0: Video: mpeg4, yuv420p, 576x432 [PAR 1:1 DAR 4:3], 29.97 tbr, 29.97 tbn, 29.98 tbc
    Stream #0.1(eng): Video: h264, yuv420p, 640x480, PAR 1:1 DAR 4:3, 29.97 tbr, 29.97 tbn, 59.94 tbc
    Stream #0.0: Video: mpeg4, yuv420p, 512x384 [PAR 1:1 DAR 4:3], 29.97 tbr, 29.97 tbn, 29.98 tbc
    Stream #0.0: Video: mpeg4, yuv420p, 512x384 [PAR 1:1 DAR 4:3], 29.97 tbr, 29.97 tbn, 29.98 tbc
    Stream #0.0: Video: mpeg4, yuv420p, 544x352 [PAR 1:1 DAR 17:11], 29.97 tbr, 29.97 tbn, 29.97 tbc
    Stream #0.1: Video: wmv2, yuv420p, 720x480, 1438 kb/s, 24 tbr, 1k tbn, 1k tbc
    Stream #0.0: Video: mpeg4, yuv420p, 576x320 [PAR 1:1 DAR 9:5], 29.97 tbr, 29.97 tbn, 29.98 tbc
    Stream #0.1: Video: wmv3, yuv420p, 640x480, 1476 kb/s, 30 tbr, 1k tbn, 1k tbc
    Stream #0.0: Video: mpeg4, yuv420p, 576x320 [PAR 1:1 DAR 9:5], 29.97 tbr, 29.97 tbn, 29.98 tbc
    Stream #0.0: Video: mpeg4, yuv420p, 576x320 [PAR 1:1 DAR 9:5], 29.97 tbr, 29.97 tbn, 29.98 tbc
    Stream #0.1: Video: wmv2, yuv420p, 640x480, 1016 kb/s, 30 tbr, 1k tbn, 1k tbc
    Stream #0.1: Video: wmv3, yuv420p, 1280x720, 4985 kb/s, 29.97 tbr, 1k tbn, 1k tbc
    Stream #0.1: Video: wmv3, yuv420p, 640x480, 991 kb/s, 29.97 tbr, 1k tbn, 1k tbc
    Stream #0.1: Video: wmv3, yuv420p, 640x480, 991 kb/s, 29.97 tbr, 1k tbn, 1k tbc
    Stream #0.1: Video: wmv3, yuv420p, 640x480, 991 kb/s, 29.97 tbr, 1k tbn, 1k tbc
    Stream #0.1: Video: wmv3, yuv420p, 640x480, 1000 kb/s, 29.97 tbr, 1k tbn, 1k tbc
    Stream #0.1: Video: wmv3, yuv420p, 640x480, 1000 kb/s, 29.97 tbr, 1k tbn, 1k tbc
    Stream #0.1: Video: wmv3, yuv420p, 640x480, 991 kb/s, 29.97 tbr, 1k tbn, 1k tbc
    Stream #0.1: Video: wmv3, yuv420p, 640x480, 1000 kb/s, 29.97 tbr, 1k tbn, 1k tbc
    Stream #0.1: Video: wmv3, yuv420p, 640x480, 1000 kb/s, 29.97 tbr, 1k tbn, 1k tbc
    Stream #0.1: Video: wmv3, yuv420p, 640x480, 991 kb/s, 29.97 tbr, 1k tbn, 1k tbc
    Stream #0.1: Video: wmv3, yuv420p, 640x480, 991 kb/s, 29.97 tbr, 1k tbn, 1k tbc
    Stream #0.1: Video: wmv3, yuv420p, 640x480, 991 kb/s, 29.97 tbr, 1k tbn, 1k tbc
    Stream #0.1: Video: wmv3, yuv420p, 640x480, 1000 kb/s, 29.97 tbr, 1k tbn, 1k tbc
    Stream #0.1: Video: wmv3, yuv420p, 640x480, 1000 kb/s, 29.97 tbr, 1k tbn, 1k tbc
    Stream #0.1: Video: wmv3, yuv420p, 640x480, 1000 kb/s, 29.97 tbr, 1k tbn, 1k tbc
    Stream #0.1: Video: wmv3, yuv420p, 640x480, 991 kb/s, 29.97 tbr, 1k tbn, 1k tbc
    Stream #0.1: Video: wmv3, yuv420p, 640x480, 1000 kb/s, 29.97 tbr, 1k tbn, 1k tbc
    Stream #0.1: Video: wmv3, yuv420p, 640x480, 1000 kb/s, 29.97 tbr, 1k tbn, 1k tbc
    Stream #0.1: Video: wmv3, yuv420p, 640x480, 1000 kb/s, 29.97 tbr, 1k tbn, 1k tbc
    Stream #0.1: Video: wmv3, yuv420p, 640x480, 1000 kb/s, 29.97 tbr, 1k tbn, 1k tbc
    Stream #0.1: Video: wmv3, yuv420p, 640x480, 991 kb/s, 29.97 tbr, 1k tbn, 1k tbc
    Stream #0.1: Video: wmv3, yuv420p, 640x480, 1000 kb/s, 29.97 tbr, 1k tbn, 1k tbc
    Stream #0.1: Video: wmv3, yuv420p, 640x480, 991 kb/s, 29.97 tbr, 1k tbn, 1k tbc
    Stream #0.1: Video: wmv3, yuv420p, 640x480, 991 kb/s, 29.97 tbr, 1k tbn, 1k tbc
    Stream #0.1: Video: wmv3, yuv420p, 640x480, 991 kb/s, 29.97 tbr, 1k tbn, 1k tbc
    Stream #0.1: Video: wmv3, yuv420p, 640x480, 1000 kb/s, 29.97 tbr, 1k tbn, 1k tbc
    Stream #0.1: Video: wmv3, yuv420p, 640x480, 991 kb/s, 29.97 tbr, 1k tbn, 1k tbc
    Stream #0.1: Video: wmv3, yuv420p, 640x480, 1000 kb/s, 29.97 tbr, 1k tbn, 1k tbc
    Stream #0.1: Video: wmv3, yuv420p, 640x480, 1000 kb/s, 29.97 tbr, 1k tbn, 1k tbc
    Stream #0.1: Video: wmv3, yuv420p, 640x360, 2180 kb/s, 29.97 tbr, 1k tbn, 1k tbc
    Stream #0.1: Video: wmv3, yuv420p, 888x480, 1400 kb/s, 29.97 tbr, 1k tbn, 1k tbc
    Stream #0.1: Video: wmv3, yuv420p, 640x480, 870 kb/s, 29.92 tbr, 1k tbn, 1k tbc
    Stream #0.0: Video: mpeg4, yuv420p, 512x384 [PAR 1:1 DAR 4:3], 29.97 tbr, 29.97 tbn, 29.98 tbc
    Stream #0.0: Video: vp6f, yuv420p, 512x288, 25 tbr, 1k tbn, 1k tbc
    Stream #0.0: Video: vp6f, yuv420p, 720x480, 29.97 tbr, 1k tbn, 1k tbc
    Stream #0.1: Video: wmv2, yuv420p, 352x288, 636 kb/s, 30 tbr, 1k tbn, 1k tbc
    Stream #0.0: Video: vp6f, yuv420p, 720x480, 29.92 tbr, 1k tbn, 1k tbc
    Stream #0.1: Video: wmv2, yuv420p, 352x288, 636 kb/s, 30 tbr, 1k tbn, 1k tbc
    Stream #0.0: Video: vp6f, yuv420p, 320x240, 26.58 tbr, 1k tbn, 1k tbc
    Stream #0.1: Video: wmv2, yuv420p, 352x288, 636 kb/s, 30 tbr, 1k tbn, 1k tbc
    Stream #0.1: Video: wmv2, yuv420p, 352x288, 636 kb/s, 30 tbr, 1k tbn, 1k tbc
    Stream #0.1: Video: wmv2, yuv420p, 352x288, 636 kb/s, 30 tbr, 1k tbn, 1k tbc
    Stream #0.0: Video: vp6f, yuv420p, 720x480, 29.97 tbr, 1k tbn, 1k tbc
    Stream #0.1: Video: wmv3, yuv420p, 480x360, 512 kb/s, 29.97 tbr, 1k tbn, 1k tbc
    Stream #0.1: Video: wmv2, yuv420p, 352x288, 636 kb/s, 30 tbr, 1k tbn, 1k tbc
    Stream #0.0: Video: vp6f, yuv420p, 640x480, 30 tbr, 1k tbn, 1k tbc
    Stream #0.0: Video: vp6f, yuv420p, 720x576, 25 tbr, 1k tbn, 1k tbc
    Stream #0.0[0x1e0]: Video: mpeg1video, yuv420p, 640x480 [PAR 1:1 DAR 4:3], 1800 kb/s, 29.97 tbr, 90k tbn, 29.97 tbc
    Stream #0.1: Video: wmv3, yuv420p, 720x540, 1024 kb/s, 29.97 tbr, 1k tbn, 1k tbc
    Stream #0.1: Video: wmv3, yuv420p, 720x576, 1335 kb/s, 25 tbr, 1k tbn, 1k tbc
    Stream #0.0: Video: vp6f, yuv420p, 720x480, 29.97 tbr, 1k tbn, 1k tbc
    Stream #0.1: Video: wmv3, yuv420p, 888x480, 1400 kb/s, 29.97 tbr, 1k tbn, 1k tbc
    Stream #0.0: Video: vp6f, yuv420p, 640x480, 25 tbr, 1k tbn, 1k tbc
    Stream #0.1: Video: wmv2, yuv420p, 352x288, 636 kb/s, 30 tbr, 1k tbn, 1k tbc
    Stream #0.0: Video: vp6f, yuv420p, 720x480, 29.97 tbr, 1k tbn, 1k tbc
    Stream #0.0: Video: vp6f, yuv420p, 720x480, 29.97 tbr, 1k tbn, 1k tbc
    Stream #0.1: Video: wmv3, yuv420p, 320x240, 265 kb/s, 25 tbr, 1k tbn, 1k tbc
    Stream #0.1: Video: wmv2, yuv420p, 352x288, 636 kb/s, 30 tbr, 1k tbn, 1k tbc
    Stream #0.0: Video: vp6f, yuv420p, 720x576, 25 tbr, 1k tbn, 1k tbc
    Stream #0.0: Video: vp6f, yuv420p, 720x480, 29.97 tbr, 1k tbn, 1k tbc
    Stream #0.1: Video: msmpeg4, yuv420p, 352x240, 15 tbr, 1k tbn, 1k tbc
    Stream #0.0: Video: vp6f, yuv420p, 640x480, 30 tbr, 1k tbn, 1k tbc
    Stream #0.0: Video: vp6f, yuv420p, 720x480, 29.97 tbr, 1k tbn, 1k tbc
    Stream #0.0: Video: vp6f, yuv420p, 600x450, 29.97 tbr, 1k tbn, 1k tbc
    Stream #0.1: Video: wmv3, yuv420p, 480x360, 512 kb/s, 29.97 tbr, 1k tbn, 1k tbc
    Stream #0.1: Video: wmv2, yuv420p, 352x288, 636 kb/s, 30 tbr, 1k tbn, 1k tbc
    Stream #0.0: Video: vp6f, yuv420p, 720x480, 29.97 tbr, 1k tbn, 1k tbc
    Stream #0.0: Video: vp6f, yuv420p, 720x480, 29.97 tbr, 1k tbn, 1k tbc
    Stream #0.0[0x1e0]: Video: mpeg1video, yuv420p, 320x240 [PAR 1:1 DAR 4:3], 1150 kb/s, 29.97 tbr, 90k tbn, 29.97 tbc
    Stream #0.0: Video: vp6f, yuv420p, 720x480, 29.97 tbr, 1k tbn, 1k tbc
    Stream #0.0: Video: vp6f, yuv420p, 720x480, 29.97 tbr, 1k tbn, 1k tbc
    Stream #0.0: Video: vp6f, yuv420p, 720x480, 29.97 tbr, 1k tbn, 1k tbc
    Stream #0.1: Video: wmv3, yuv420p, 400x300, 512 kb/s, 29.97 tbr, 1k tbn, 1k tbc
    Stream #0.1: Video: wmv2, yuv420p, 352x288, 636 kb/s, 30 tbr, 1k tbn, 1k tbc
    Stream #0.1: Video: wmv2, yuv420p, 352x288, 636 kb/s, 30 tbr, 1k tbn, 1k tbc
    Stream #0.0: Video: vp6f, yuv420p, 720x480, 29.97 tbr, 1k tbn, 1k tbc
    Stream #0.0: Video: vp6f, yuv420p, 640x426, 29.97 tbr, 1k tbn, 1k tbc
    Stream #0.1: Video: wmv3, yuv420p, 320x240, 468 kb/s, 25 tbr, 1k tbn, 1k tbc
    Stream #0.1: Video: wmv2, yuv420p, 352x288, 636 kb/s, 30 tbr, 1k tbn, 1k tbc
    Stream #0.1: Video: wmv1, yuv420p, 320x240, 314 kb/s, 30 tbr, 1k tbn, 1k tbc
    Stream #0.0: Video: vp6f, yuv420p, 720x480, 29.97 tbr, 1k tbn, 1k tbc
    Stream #0.0: Video: vp6f, yuv420p, 720x480, 29.97 tbr, 1k tbn, 1k tbc
    Stream #0.0: Video: vp6f, yuv420p, 720x480, 29.97 tbr, 1k tbn, 1k tbc
    Stream #0.1: Video: wmv3, yuv420p, 480x360, 512 kb/s, 29.97 tbr, 1k tbn, 1k tbc
    Stream #0.0: Video: vp6f, yuv420p, 640x480, 29.97 tbr, 1k tbn, 1k tbc
    Stream #0.1: Video: wmv1, yuv420p, 400x300, 30 tbr, 1k tbn, 1k tbc
    Stream #0.1: Video: wmv2, yuv420p, 352x288, 636 kb/s, 30 tbr, 1k tbn, 1k tbc
    Stream #0.1: Video: wmv2, yuv420p, 352x288, 636 kb/s, 30 tbr, 1k tbn, 1k tbc
    Stream #0.0: Video: vp6f, yuv420p, 720x480, 29.97 tbr, 1k tbn, 1k tbc
    Stream #0.1: Video: wmv2, yuv420p, 352x288, 636 kb/s, 30 tbr, 1k tbn, 1k tbc
    Stream #0.1: Video: wmv2, yuv420p, 352x288, 636 kb/s, 30 tbr, 1k tbn, 1k tbc
    Stream #0.0: Video: vp6f, yuv420p, 720x480, 29.97 tbr, 1k tbn, 1k tbc
    Stream #0.0: Video: vp6f, yuv420p, 720x480, 29.97 tbr, 1k tbn, 1k tbc
    Stream #0.1: Video: wmv3, yuv420p, 480x360, 512 kb/s, 29.97 tbr, 1k tbn, 1k tbc
    Stream #0.0: Video: vp6f, yuv420p, 640x480, 30 tbr, 1k tbn, 1k tbc
    Stream #0.0[0x1e0]: Video: mpeg1video, yuv420p, 720x480 [PAR 1:1 DAR 3:2], 104857 kb/s, 29.97 tbr, 90k tbn, 29.97 tbc
    Stream #0.1: Video: wmv2, yuv420p, 352x288, 636 kb/s, 30 tbr, 1k tbn, 1k tbc
    Stream #0.0: Video: vp6f, yuv420p, 352x240, 30 tbr, 1k tbn, 1k tbc
    Stream #0.1: Video: wmv2, yuv420p, 352x288, 636 kb/s, 30 tbr, 1k tbn, 1k tbc
    Stream #0.1: Video: wmv2, yuv420p, 352x288, 636 kb/s, 30 tbr, 1k tbn, 1k tbc
    Stream #0.0: Video: vp6f, yuv420p, 640x480, 25 tbr, 1k tbn, 1k tbc
    Stream #0.0: Video: vp6f, yuv420p, 720x480, 29.97 tbr, 1k tbn, 1k tbc
    Stream #0.1: Video: wmv3, yuv420p, 480x360, 512 kb/s, 29.97 tbr, 1k tbn, 1k tbc
    Stream #0.1: Video: wmv2, yuv420p, 352x288, 636 kb/s, 30 tbr, 1k tbn, 1k tbc
    Stream #0.0: Video: vp6f, yuv420p, 720x480, 29.97 tbr, 1k tbn, 1k tbc
    Stream #0.1: Video: wmv2, yuv420p, 352x288, 636 kb/s, 30 tbr, 1k tbn, 1k tbc
    Stream #0.1: Video: wmv2, yuv420p, 352x288, 636 kb/s, 30 tbr, 1k tbn, 1k tbc
    Stream #0.1: Video: wmv2, yuv420p, 352x288, 636 kb/s, 30 tbr, 1k tbn, 1k tbc
    Stream #0.0: Video: vp6f, yuv420p, 512x384, 30 tbr, 1k tbn, 1k tbc
    Stream #0.1: Video: wmv2, yuv420p, 352x288, 636 kb/s, 30 tbr, 1k tbn, 1k tbc
    Stream #0.0: Video: vp6f, yuv420p, 640x480, 25 tbr, 1k tbn, 1k tbc
    Stream #0.0: Video: vp6f, yuv420p, 720x480, 29.97 tbr, 1k tbn, 1k tbc
    Stream #0.0: Video: vp6f, yuv420p, 720x480, 29.97 tbr, 1k tbn, 1k tbc
    Stream #0.0: Video: vp6f, yuv420p, 720x480, 29.97 tbr, 1k tbn, 1k tbc
    Stream #0.1: Video: wmv2, yuv420p, 352x288, 636 kb/s, 30 tbr, 1k tbn, 1k tbc
    Stream #0.1: Video: wmv2, yuv420p, 352x288, 636 kb/s, 30 tbr, 1k tbn, 1k tbc
    Stream #0.1: Video: wmv2, yuv420p, 352x288, 636 kb/s, 30 tbr, 1k tbn, 1k tbc
    Stream #0.0: Video: vp6f, yuv420p, 600x470, 25 tbr, 1k tbn, 1k tbc
    Stream #0.1: Video: wmv3, yuv420p, 720x480, 3000 kb/s, 29.97 tbr, 1k tbn, 1k tbc
    Stream #0.1: Video: wmv3, yuv420p, 720x480, 3000 kb/s, 29.97 tbr, 1k tbn, 1k tbc
    Stream #0.1: Video: wmv3, yuv420p, 720x480, 3000 kb/s, 29.97 tbr, 1k tbn, 1k tbc
    Stream #0.1: Video: wmv3, yuv420p, 720x480, 3000 kb/s, 29.97 tbr, 1k tbn, 1k tbc
    Stream #0.1: Video: wmv3, yuv420p, 720x480, 3000 kb/s, 29.97 tbr, 1k tbn, 1k tbc
    Stream #0.1: Video: wmv3, yuv420p, 720x480, 3000 kb/s, 29.97 tbr, 1k tbn, 1k tbc
    Stream #0.1: Video: wmv3, yuv420p, 720x480, 3000 kb/s, 29.97 tbr, 1k tbn, 1k tbc
    Stream #0.1: Video: wmv3, yuv420p, 720x480, 3000 kb/s, 29.97 tbr, 1k tbn, 1k tbc
    Stream #0.1: Video: wmv3, yuv420p, 720x480, 3000 kb/s, 29.97 tbr, 1k tbn, 1k tbc
    Stream #0.1: Video: wmv3, yuv420p, 720x480, 3000 kb/s, 29.97 tbr, 1k tbn, 1k tbc
    Stream #0.1: Video: wmv2, yuv420p, 352x288, 636 kb/s, 30 tbr, 1k tbn, 1k tbc
    Stream #0.1: Video: wmv2, yuv420p, 352x288, 636 kb/s, 30 tbr, 1k tbn, 1k tbc
    Stream #0.1: Video: msmpeg4, yuv420p, 352x240, 14.99 tbr, 1k tbn, 1k tbc
    Stream #0.0: Video: vp6f, yuv420p, 352x240, 29.97 tbr, 1k tbn, 1k tbc
    Stream #0.0: Video: vp6f, yuv420p, 720x480, 29.97 tbr, 1k tbn, 1k tbc
    Stream #0.0: Video: mpeg4, yuv420p, 576x320 [PAR 1:1 DAR 9:5], 25 tbr, 25 tbn, 25 tbc
    Stream #0.0: Video: mpeg4, yuv420p, 576x320 [PAR 1:1 DAR 9:5], 25 tbr, 25 tbn, 25 tbc
    Stream #0.0: Video: mpeg4, yuv420p, 576x320 [PAR 1:1 DAR 9:5], 29.97 tbr, 29.97 tbn, 29.98 tbc
    Stream #0.0: Video: vp6f, yuv420p, 640x480, 30 tbr, 1k tbn, 1k tbc
    Stream #0.0: Video: vp6f, yuv420p, 640x480, 24 tbr, 1k tbn, 1k tbc
    Stream #0.0: Video: vp6f, yuv420p, 320x174, 24 tbr, 1k tbn, 1k tbc
    Stream #0.0: Video: vp6f, yuv420p, 480x368, 25 tbr, 1k tbn, 1k tbc
    Stream #0.0(eng): Video: h264, yuv420p, 640x360, 29.97 tbr, 29.97 tbn, 59.94 tbc
    Stream #0.0: Video: vp6f, yuv420p, 720x480, 30 tbr, 1k tbn, 1k tbc
    Stream #0.1: Video: wmv2, yuv420p, 352x288, 636 kb/s, 30 tbr, 1k tbn, 1k tbc
    Stream #0.0: Video: vp6f, yuv420p, 624x464, 23.98 tbr, 1k tbn, 1k tbc
    Stream #0.1: Video: wmv2, yuv420p, 320x240, 395 kb/s, 1k tbr, 1k tbn, 1k tbc
    Stream #0.0: Video: vp6f, yuv420p, 720x480, 29.92 tbr, 1k tbn, 1k tbc
    Stream #0.0: Video: mpeg4, yuv420p, 528x304 [PAR 1:1 DAR 33:19], 29.97 tbr, 29.97 tbn, 29.98 tbc
    Stream #0.0: Video: mpeg4, yuv420p, 608x336 [PAR 1:1 DAR 38:21], 25 tbr, 25 tbn, 25 tbc
    Stream #0.0: Video: mpeg4, yuv420p, 704x576 [PAR 1:1 DAR 11:9], 29.97 tbr, 29.97 tbn, 29.97 tbc
    Stream #0.0: Video: mpeg4, yuv420p, 608x352 [PAR 1:1 DAR 19:11], 23.98 tbr, 23.98 tbn, 23.98 tbc
    Stream #0.0: Video: mpeg4, yuv420p, 608x352 [PAR 1:1 DAR 19:11], 23.98 tbr, 23.98 tbn, 23.98 tbc
    Stream #0.0: Video: mpeg4, yuv420p, 640x480 [PAR 1:1 DAR 4:3], 25 tbr, 25 tbn, 30k tbc
    Stream #0.0: Video: vp6f, yuv420p, 640x480, 24.08 tbr, 1k tbn, 1k tbc
    Stream #0.0: Video: vp6f, yuv420p, 720x576, 25 tbr, 1k tbn, 1k tbc
    Stream #0.0: Video: vp6f, yuv420p, 512x384, 25 tbr, 1k tbn, 1k tbc
    Stream #0.1: Video: wmv2, yuv420p, 352x288, 636 kb/s, 30 tbr, 1k tbn, 1k tbc
    Stream #0.1: Video: wmv2, yuv420p, 352x288, 636 kb/s, 30 tbr, 1k tbn, 1k tbc
    Stream #0.1: Video: wmv3, yuv420p, 320x240, 304 kb/s, 25 tbr, 1k tbn, 1k tbc
    Stream #0.1: Video: wmv2, yuv420p, 352x288, 636 kb/s, 30 tbr, 1k tbn, 1k tbc
    Stream #0.1: Video: wmv2, yuv420p, 352x288, 636 kb/s, 30 tbr, 1k tbn, 1k tbc
    Stream #0.1: Video: wmv2, yuv420p, 352x288, 636 kb/s, 30 tbr, 1k tbn, 1k tbc
    Stream #0.1: Video: wmv2, yuv420p, 352x288, 636 kb/s, 30 tbr, 1k tbn, 1k tbc
    Stream #0.1: Video: wmv2, yuv420p, 352x288, 636 kb/s, 30 tbr, 1k tbn, 1k tbc
    Stream #0.1: Video: wmv2, yuv420p, 352x288, 636 kb/s, 30 tbr, 1k tbn, 1k tbc
    Stream #0.0: Video: vp6f, yuv420p, 720x576, 25 tbr, 1k tbn, 1k tbc
    Stream #0.1: Video: wmv2, yuv420p, 352x288, 636 kb/s, 30 tbr, 1k tbn, 1k tbc
    Stream #0.0: Video: vp6f, yuv420p, 432x324, 23.98 tbr, 1k tbn, 1k tbc
    Stream #0.1: Video: wmv2, yuv420p, 352x288, 636 kb/s, 30 tbr, 1k tbn, 1k tbc
    Stream #0.0: Video: vp6f, yuv420p, 720x576, 25 tbr, 1k tbn, 1k tbc
    Stream #0.0: Video: vp6f, yuv420p, 640x480, 24.08 tbr, 1k tbn, 1k tbc
    Stream #0.0: Video: vp6f, yuv420p, 320x240, 30 tbr, 1k tbn, 1k tbc
    Stream #0.1: Video: wmv2, yuv420p, 352x288, 636 kb/s, 30 tbr, 1k tbn, 1k tbc
    Stream #0.0: Video: vp6f, yuv420p, 352x288, 25 tbr, 1k tbn, 1k tbc
    Stream #0.1: Video: wmv2, yuv420p, 352x288, 636 kb/s, 30 tbr, 1k tbn, 1k tbc
    Stream #0.0: Video: vp6f, yuv420p, 640x480, 24.08 tbr, 1k tbn, 1k tbc
    Stream #0.0: Video: vp6f, yuv420p, 640x480, 24.08 tbr, 1k tbn, 1k tbc
    Stream #0.1: Video: wmv3, yuv420p, 320x240, 362 kb/s, 25 tbr, 1k tbn, 1k tbc
    Stream #0.1: Video: wmv3, yuv420p, 640x480, 707 kb/s, 25 tbr, 1k tbn, 1k tbc
    Stream #0.0: Video: vp6f, yuv420p, 720x480, 29.97 tbr, 1k tbn, 1k tbc
    Stream #0.0: Video: vp6f, yuv420p, 720x576, 25 tbr, 1k tbn, 1k tbc
    Stream #0.0[0x1e0]: Video: mpeg1video, yuv420p, 640x480 [PAR 178:163 DAR 712:489], 1150 kb/s, 23.98 tbr, 90k tbn, 23.98 tbc
    Stream #0.0: Video: vp6f, yuv420p, 720x480, 29.97 tbr, 1k tbn, 1k tbc
    Stream #0.0: Video: wmv3, yuv420p, 320x240, 15 tbr, 15 tbn, 15 tbc
    Stream #0.1: Video: wmv3, yuv420p, 320x240, 448 kb/s, 25 tbr, 1k tbn, 1k tbc
    Stream #0.0: Video: vp6f, yuv420p, 640x360, 25 tbr, 1k tbn, 1k tbc
    Stream #0.0: Video: mpeg4, yuv420p, 512x384 [PAR 1:1 DAR 4:3], 29.97 tbr, 29.97 tbn, 29.98 tbc
    Stream #0.0: Video: mpeg4, yuv420p, 576x432 [PAR 1:1 DAR 4:3], 29.97 tbr, 29.97 tbn, 29.98 tbc
    Stream #0.0: Video: mpeg4, yuv420p, 576x432 [PAR 1:1 DAR 4:3], 29.97 tbr, 29.97 tbn, 29.98 tbc
    Stream #0.0: Video: mpeg4, yuv420p, 512x384 [PAR 1:1 DAR 4:3], 29.97 tbr, 29.97 tbn, 29.97 tbc
    Stream #0.0: Video: mpeg4, yuv420p, 624x352 [PAR 1:1 DAR 39:22], 29.97 tbr, 29.97 tbn, 29.98 tbc
    Stream #0.0: Video: mpeg4, yuv420p, 576x320 [PAR 1:1 DAR 9:5], 29.97 tbr, 29.97 tbn, 29.98 tbc
    Stream #0.0: Video: mpeg4, yuv420p, 512x384 [PAR 1:1 DAR 4:3], 29.97 tbr, 29.97 tbn, 29.97 tbc
    Stream #0.0: Video: mpeg4, yuv420p, 576x432 [PAR 1:1 DAR 4:3], 29.97 tbr, 29.97 tbn, 29.98 tbc
    Stream #0.0: Video: mpeg4, yuv420p, 576x320 [PAR 1:1 DAR 9:5], 29.97 tbr, 29.97 tbn, 29.98 tbc
    Stream #0.0: Video: mpeg4, yuv420p, 624x352 [PAR 1:1 DAR 39:22], 29.97 tbr, 29.97 tbn, 29.98 tbc
    Stream #0.0: Video: mpeg4, yuv420p, 512x384 [PAR 1:1 DAR 4:3], 29.97 tbr, 29.97 tbn, 29.98 tbc
    Stream #0.0: Video: mpeg4, yuv420p, 576x432 [PAR 1:1 DAR 4:3], 29.97 tbr, 29.97 tbn, 29.98 tbc
    Stream #0.0: Video: vp6f, yuv420p, 520x390, 29.92 tbr, 1k tbn, 1k tbc
    Stream #0.0: Video: vp6f, yuv420p, 352x240, 29.97 tbr, 1k tbn, 1k tbc
    Stream #0.0: Video: vp6f, yuv420p, 720x480, 29.97 tbr, 1k tbn, 1k tbc
    Stream #0.0: Video: vp6f, yuv420p, 320x240, 30 tbr, 1k tbn, 1k tbc
    Stream #0.0: Video: vp6f, yuv420p, 640x480, 30 tbr, 1k tbn, 1k tbc
    Stream #0.0: Video: mpeg4, yuv420p, 480x360 [PAR 1:1 DAR 4:3], 23.98 tbr, 23.98 tbn, 23.98 tbc
    Stream #0.0: Video: vp6f, yuv420p, 640x480, 30 tbr, 1k tbn, 1k tbc
    Stream #0.1: Video: wmv3, yuv420p, 320x240, 325 kb/s, 30 tbr, 1k tbn, 1k tbc
    Stream #0.0: Video: vp6f, yuv420p, 320x240, 30 tbr, 1k tbn, 1k tbc
    Stream #0.0: Video: mpeg4, yuv420p, 320x240 [PAR 1:1 DAR 4:3], 29.97 tbr, 29.97 tbn, 30k tbc
    Stream #0.0: Video: vp6f, yuv420p, 352x240, 29.97 tbr, 1k tbn, 1k tbc
    Stream #0.0(eng): Video: mpeg4, yuv420p, 400x300 [PAR 1:1 DAR 4:3], 25 tbr, 25 tbn, 1k tbc
    Stream #0.1: Video: wmv3, yuv420p, 480x360, 400 kb/s, 29.97 tbr, 1k tbn, 1k tbc
    Stream #0.0: Video: vp6f, yuv420p, 640x480, 25 tbr, 1k tbn, 1k tbc
    Stream #0.0: Video: vp6f, yuv420p, 720x480, 29.97 tbr, 1k tbn, 1k tbc
    Stream #0.0: Video: vp6f, yuv420p, 720x480, 29.97 tbr, 1k tbn, 1k tbc
    Stream #0.1: Video: wmv3, yuv420p, 480x360, 450 kb/s, 29.97 tbr, 1k tbn, 1k tbc
    Stream #0.0: Video: msmpeg4, yuv420p, 480x368, 14.98 tbr, 14.99 tbn, 14.99 tbc
    Stream #0.0: Video: vp6f, yuv420p, 640x480, 30 tbr, 1k tbn, 1k tbc
    Stream #0.0[0x1e0]: Video: mpeg1video, yuv420p, 352x240 [PAR 200:219 DAR 880:657], 1000 kb/s, 29.97 tbr, 90k tbn, 29.97 tbc
    Stream #0.0: Video: vp6f, yuv420p, 320x240, 30 tbr, 1k tbn, 1k tbc
    Stream #0.0[0x1e0]: Video: mpeg1video, yuv420p, 320x240 [PAR 1:1 DAR 4:3], 1150 kb/s, 30 tbr, 90k tbn, 30 tbc
    Stream #0.1: Video: wmv1, yuv420p, 352x288, 840 kb/s, 29.97 tbr, 1k tbn, 1k tbc
    Stream #0.0: Video: vp6f, yuv420p, 640x480, 29.97 tbr, 1k tbn, 1k tbc
    Stream #0.0: Video: vp6f, yuv420p, 640x480, 30 tbr, 1k tbn, 1k tbc
    Stream #0.0: Video: mpeg4, yuv420p, 320x240 [PAR 1:1 DAR 4:3], 29.97 tbr, 29.97 tbn, 30k tbc
    Stream #0.0: Video: vp6f, yuv420p, 512x384, 25 tbr, 1k tbn, 1k tbc
    Stream #0.0: Video: vp6f, yuv420p, 640x480, 30 tbr, 1k tbn, 1k tbc
    Stream #0.0: Video: vp6f, yuv420p, 720x480, 29.97 tbr, 1k tbn, 1k tbc
    Stream #0.1: Video: wmv2, yuv420p, 480x352, 959 kb/s, 23.98 tbr, 1k tbn, 1k tbc
    Stream #0.0: Video: vp6f, yuv420p, 640x480, 30 tbr, 1k tbn, 1k tbc
    Stream #0.0: Video: vp6f, yuv420p, 640x480, 30 tbr, 1k tbn, 1k tbc
    Stream #0.0: Video: vp6f, yuv420p, 640x480, 30 tbr, 1k tbn, 1k tbc
    Stream #0.0: Video: mpeg4, yuv420p, 480x360 [PAR 1:1 DAR 4:3], 23.98 tbr, 23.98 tbn, 23.98 tbc
    Stream #0.0: Video: vp6f, yuv420p, 720x540, 30 tbr, 1k tbn, 1k tbc
    Stream #0.0: Video: vp6f, yuv420p, 768x576, 30 tbr, 1k tbn, 1k tbc
    Stream #0.0: Video: mpeg4, yuv420p, 352x240 [PAR 1:1 DAR 22:15], 29.97 tbr, 29.97 tbn, 30k tbc
    Stream #0.0: Video: mpeg4, yuv420p, 512x288 [PAR 1:1 DAR 16:9], 29.97 tbr, 29.97 tbn, 29.98 tbc
    Stream #0.0: Video: mpeg4, yuv420p, 576x320 [PAR 1:1 DAR 9:5], 29.97 tbr, 29.97 tbn, 29.98 tbc
    Stream #0.0: Video: mpeg4, yuv420p, 576x432 [PAR 1:1 DAR 4:3], 25 tbr, 25 tbn, 25 tbc
    Stream #0.0: Video: mpeg4, yuv420p, 576x432 [PAR 1:1 DAR 4:3], 25 tbr, 25 tbn, 25 tbc
    Stream #0.0: Video: mpeg4, yuv420p, 512x288 [PAR 1:1 DAR 16:9], 29.97 tbr, 29.97 tbn, 29.98 tbc
    Stream #0.0: Video: mpeg4, yuv420p, 640x352 [PAR 1:1 DAR 20:11], 23.98 tbr, 23.98 tbn, 23.98 tbc
    Stream #0.0: Video: mpeg4, yuv420p, 512x288 [PAR 1:1 DAR 16:9], 29.97 tbr, 29.97 tbn, 29.98 tbc
    Stream #0.0: Video: mpeg4, yuv420p, 576x320 [PAR 1:1 DAR 9:5], 29.97 tbr, 29.97 tbn, 29.98 tbc
    Stream #0.0: Video: mpeg4, yuv420p, 512x288 [PAR 1:1 DAR 16:9], 29.97 tbr, 29.97 tbn, 29.98 tbc
    Stream #0.0: Video: mpeg4, yuv420p, 512x288 [PAR 1:1 DAR 16:9], 29.97 tbr, 29.97 tbn, 29.98 tbc
    Stream #0.1: Video: wmv3, yuv420p, 512x384, 1500 kb/s, 17 tbr, 1k tbn, 1k tbc
    Stream #0.0: Video: vp6f, yuv420p, 640x480, 29.97 tbr, 1k tbn, 1k tbc
    Stream #0.0: Video: vp6f, yuv420p, 1280x720, 14.99 tbr, 1k tbn, 1k tbc
    Stream #0.0[0x1e0]: Video: mpeg1video, yuv420p, 352x240 [PAR 200:219 DAR 880:657], 1089 kb/s, 30 tbr, 90k tbn, 30 tbc
    Stream #0.0: Video: vp6f, yuv420p, 512x384, 30 tbr, 1k tbn, 1k tbc
    Stream #0.0: Video: vp6f, yuv420p, 640x480, 23.98 tbr, 1k tbn, 1k tbc
    Stream #0.0: Video: vp6f, yuv420p, 512x384, 29.97 tbr, 1k tbn, 1k tbc
    Stream #0.1: Video: wmv3, yuv420p, 640x480, 1900 kb/s, 25 tbr, 1k tbn, 1k tbc
    Stream #0.0[0x1e0]: Video: mpeg1video, yuv420p, 352x288 [PAR 178:163 DAR 1958:1467], 2000 kb/s, 25 tbr, 90k tbn, 25 tbc
    Stream #0.0: Video: vp6f, yuv420p, 640x480, 30 tbr, 1k tbn, 1k tbc
    Stream #0.0: Video: vp6f, yuv420p, 640x360, 25 tbr, 1k tbn, 1k tbc
    Stream #0.1: Video: wmv3, yuv420p, 512x384, 1500 kb/s, 17 tbr, 1k tbn, 1k tbc
    Stream #0.0: Video: vp6f, yuv420p, 720x480, 29.97 tbr, 1k tbn, 1k tbc
    Stream #0.0: Video: vp6f, yuv420p, 720x576, 25 tbr, 1k tbn, 1k tbc
    Stream #0.0: Video: vp6f, yuv420p, 512x384, 30 tbr, 1k tbn, 1k tbc
    Stream #0.0: Video: msmpeg4v2, yuv420p, 640x480, 30 tbr, 1k tbn, 1k tbc
    Stream #0.0: Video: vp6f, yuv420p, 512x384, 30 tbr, 1k tbn, 1k tbc
    Stream #0.1: Video: wmv1, yuv420p, 320x240, 189 kb/s, 30 tbr, 1k tbn, 1k tbc
    Stream #0.0: Video: wmv3, yuv420p, 640x480, 1500 kb/s, 15 tbr, 1k tbn, 1k tbc
    Stream #0.0: Video: vp6f, yuv420p, 512x384, 30 tbr, 1k tbn, 1k tbc
    Stream #0.0: Video: vp6f, yuv420p, 720x576, 30 tbr, 1k tbn, 1k tbc
    Stream #0.0: Video: vp6f, yuv420p, 888x480, 30 tbr, 1k tbn, 1k tbc
    Stream #0.0: Video: vp6f, yuv420p, 320x240, 25 tbr, 1k tbn, 1k tbc
    Stream #0.0: Video: mpeg4, yuv420p, 608x336 [PAR 1:1 DAR 38:21], 29.97 tbr, 29.97 tbn, 29.98 tbc
    Stream #0.0: Video: mpeg4, yuv420p, 448x284 [PAR 1:1 DAR 112:71], 25 tbr, 25 tbn, 30k tbc
    Stream #0.0: Video: mpeg4, yuv420p, 640x480 [PAR 1:1 DAR 4:3], 29.97 tbr, 29.97 tbn, 29.97 tbc
    Stream #0.0: Video: vp6f, yuv420p, 640x480, 25 tbr, 1k tbn, 1k tbc
    Stream #0.0: Video: vp6f, yuv420p, 720x480, 29.97 tbr, 1k tbn, 1k tbc
    Stream #0.0: Video: vp6f, yuv420p, 640x480, 30 tbr, 1k tbn, 1k tbc
    Stream #0.0: Video: vp6f, yuv420p, 720x480, 30 tbr, 1k tbn, 1k tbc
    Stream #0.0: Video: vp6f, yuv420p, 720x480, 29.97 tbr, 1k tbn, 1k tbc
    Stream #0.0: Video: vp6f, yuv420p, 720x480, 30 tbr, 1k tbn, 1k tbc
    Stream #0.0: Video: vp6f, yuv420p, 720x576, 25 tbr, 1k tbn, 1k tbc
    Stream #0.0: Video: vp6f, yuv420p, 720x480, 30 tbr, 1k tbn, 1k tbc
    Stream #0.0: Video: vp6f, yuv420p, 720x480, 30 tbr, 1k tbn, 1k tbc
    Stream #0.0: Video: vp6f, yuv420p, 720x576, 25 tbr, 1k tbn, 1k tbc
    Stream #0.0: Video: vp6f, yuv420p, 720x576, 25 tbr, 1k tbn, 1k tbc
    Stream #0.0: Video: vp6f, yuv420p, 720x576, 25 tbr, 1k tbn, 1k tbc
    Stream #0.0: Video: vp6f, yuv420p, 720x480, 30 tbr, 1k tbn, 1k tbc
    Stream #0.1: Video: wmv3, yuv420p, 640x480, 1000 kb/s, PAR 1:1 DAR 4:3, 25 tbr, 1k tbn, 1k tbc
    Stream #0.0: Video: mpeg4, yuv420p, 576x320 [PAR 1:1 DAR 9:5], 25 tbr, 25 tbn, 25 tbc
    Stream #0.0[0x1e0]: Video: mpeg1video, yuv420p, 480x270 [PAR 1:1 DAR 16:9], 1150 kb/s, 29.97 tbr, 90k tbn, 29.97 tbc
    Stream #0.0: Video: mpeg4, yuv420p, 512x384 [PAR 1:1 DAR 4:3], 25 tbr, 25 tbn, 25 tbc
    Stream #0.0: Video: mpeg4, yuv420p, 512x384 [PAR 1:1 DAR 4:3], 25 tbr, 25 tbn, 25 tbc
    Stream #0.0: Video: mpeg4, yuv420p, 512x384 [PAR 1:1 DAR 4:3], 25 tbr, 25 tbn, 25 tbc
    Stream #0.0: Video: vp6f, yuv420p, 720x480, 29.97 tbr, 1k tbn, 1k tbc
    Stream #0.0: Video: mpeg4, yuv420p, 512x384 [PAR 1:1 DAR 4:3], 29.97 tbr, 29.97 tbn, 29.98 tbc
    Stream #0.0: Video: mpeg4, yuv420p, 512x384 [PAR 1:1 DAR 4:3], 29.97 tbr, 29.97 tbn, 29.98 tbc
    Stream #0.0: Video: vp6f, yuv420p, 352x240, 29.97 tbr, 1k tbn, 1k tbc
    Stream #0.1: Video: wmv3, yuv420p, 640x480, 2182 kb/s, 30 tbr, 1k tbn, 1k tbc
    Stream #0.0: Video: vp6f, yuv420p, 640x480, 25 tbr, 1k tbn, 1k tbc
    Stream #0.0: Video: vp6f, yuv420p, 960x540, 30 tbr, 1k tbn, 1k tbc
    Stream #0.0: Video: vp6f, yuv420p, 720x576, 25 tbr, 1k tbn, 1k tbc
